<?xml version="1.0" encoding="UTF-8" standalone="no"?>
<!-- created with HobbyLASER -->

<svg
         width="65"
         height="11.59"
         viewBox="0 0 17.197917 3.0665208"
         version="1.1"
         id="svg11"
         sodipodi:docname="wa.svg"
         xml:space="preserve"
         inkscape:version="1.2.2 (b0a8486541, 2022-12-01)"
         xmlns:inkscape="http://www.inkscape.org/namespaces/inkscape"
         xmlns:sodipodi="http://sodipodi.sourceforge.net/DTD/sodipodi-0.dtd"
         xmlns="http://www.w3.org/2000/svg"
         xmlns:svg="http://www.w3.org/2000/svg"><defs
                 id="defs15" /><sodipodi:namedview
                 id="namedview13"
                 pagecolor="#505050"
                 bordercolor="#eeeeee"
                 borderopacity="1"
                 inkscape:showpageshadow="0"
                 inkscape:pageopacity="0"
                 inkscape:pagecheckerboard="0"
                 inkscape:deskcolor="#505050"
                 inkscape:document-units="mm"
                 showgrid="false"
                 inkscape:zoom="1.0609792"
                 inkscape:cx="729.5148"
                 inkscape:cy="152.68914"
                 inkscape:window-width="1920"
                 inkscape:window-height="1014"
                 inkscape:window-x="0"
                 inkscape:window-y="30"
                 inkscape:window-maximized="1"
                 inkscape:current-layer="svg11" /><path
                 d="M 35.73,47.64 L 30.12,36.39 L 35.73,47.64 L 41.37,36.39 Z M 59.33,47.88 V 47.88 V 47.88 H 59.18 L 59.03,47.87 L 58.89,47.86 L 58.74,47.85 L 58.59,47.84 L 58.45,47.82 L 58.3,47.79 L 58.16,47.77 L 58.01,47.74 L 57.87,47.7 L 57.73,47.66 L 57.58,47.62 L 57.44,47.57 L 57.31,47.52 L 57.17,47.47 L 57.03,47.41 L 56.9,47.35 L 56.77,47.28 L 56.64,47.21 L 56.51,47.14 L 56.38,47.06 L 56.26,46.98 L 56.14,46.9 L 56.02,46.81 L 55.9,46.72 L 55.79,46.63 L 55.67,46.53 L 55.56,46.43 L 55.46,46.33 L 55.35,46.23 V 46.23 L 55.25,46.12 L 55.15,46.02 L 55.05,45.9 L 54.96,45.79 L 54.86,45.68 L 54.77,45.56 L 54.69,45.44 L 54.61,45.32 L 54.53,45.19 L 54.45,45.06 L 54.38,44.94 L 54.31,44.81 L 54.24,44.67 L 54.18,44.54 L 54.13,44.4 L 54.07,44.27 L 54.02,44.13 L 53.98,43.99 L 53.93,43.84 L 53.9,43.7 L 53.86,43.56 L 53.83,43.41 L 53.8,43.27 L 53.78,43.12 L 53.76,42.98 L 53.75,42.83 L 53.74,42.68 L 53.73,42.54 L 53.72,42.39 V 42.24 V 42.24 V 42.09 L 53.73,41.95 V 41.8 L 53.75,41.65 L 53.76,41.51 L 53.78,41.36 L 53.8,41.22 L 53.83,41.07 L 53.86,40.93 L 53.89,40.78 L 53.93,40.64 L 53.97,40.5 L 54.02,40.36 L 54.07,40.22 L 54.12,40.09 L 54.18,39.95 L 54.24,39.82 L 54.31,39.69 L 54.38,39.56 L 54.45,39.43 L 54.53,39.3 L 54.6,39.18 L 54.69,39.06 L 54.77,38.94 L 54.86,38.82 L 54.95,38.7 L 55.05,38.59 L 55.15,38.48 L 55.25,38.38 L 55.35,38.27 V 38.27 L 55.46,38.17 L 55.56,38.07 L 55.67,37.97 L 55.79,37.87 L 55.9,37.78 L 56.02,37.69 L 56.14,37.6 L 56.26,37.52 L 56.38,37.44 L 56.51,37.37 L 56.64,37.29 L 56.77,37.22 L 56.9,37.16 L 57.03,37.1 L 57.17,37.04 L 57.31,36.98 L 57.45,36.93 L 57.59,36.89 L 57.73,36.85 L 57.87,36.81 L 58.01,36.77 L 58.16,36.74 L 58.3,36.71 L 58.45,36.69 L 58.59,36.67 L 58.74,36.66 L 58.89,36.65 L 59.04,36.64 L 59.18,36.63 H 59.33 V 36.63 V 36.63 H 59.48 L 59.62,36.64 L 59.77,36.65 L 59.92,36.66 L 60.06,36.67 L 60.21,36.69 L 60.35,36.72 L 60.5,36.74 L 60.64,36.77 L 60.79,36.81 L 60.93,36.85 L 61.07,36.89 L 61.21,36.94 L 61.35,36.99 L 61.48,37.04 L 61.62,37.1 L 61.75,37.16 L 61.88,37.23 L 62.01,37.3 L 62.14,37.37 L 62.27,37.45 L 62.39,37.53 L 62.51,37.61 L 62.63,37.7 L 62.75,37.78 L 62.86,37.88 L 62.98,37.97 L 63.09,38.07 L 63.19,38.17 L 63.3,38.27 V 38.27 L 63.4,38.37 L 63.51,38.48 L 63.61,38.59 L 63.7,38.7 L 63.8,38.82 L 63.89,38.93 L 63.98,39.05 L 64.06,39.17 L 64.14,39.3 L 64.22,39.42 L 64.29,39.55 L 64.36,39.68 L 64.43,39.81 L 64.49,39.94 L 64.55,40.08 L 64.61,40.22 L 64.66,40.35 L 64.71,40.49 L 64.75,40.64 L 64.79,40.78 L 64.82,40.92 L 64.86,41.07 L 64.88,41.21 L 64.91,41.36 L 64.93,41.5 L 64.94,41.65 L 64.95,41.8 L 64.96,41.94 L 64.97,42.09 V 42.24 V 42.24 V 42.39 L 64.96,42.54 L 64.95,42.68 L 64.94,42.83 L 64.93,42.98 L 64.91,43.13 L 64.88,43.27 L 64.86,43.42 L 64.82,43.56 L 64.79,43.71 L 64.75,43.85 L 64.71,43.99 L 64.66,44.13 L 64.61,44.27 L 64.55,44.41 L 64.49,44.55 L 64.43,44.68 L 64.36,44.81 L 64.29,44.94 L 64.22,45.07 L 64.14,45.2 L 64.06,45.32 L 63.97,45.44 L 63.89,45.56 L 63.8,45.68 L 63.7,45.79 L 63.61,45.91 L 63.51,46.02 L 63.4,46.12 L 63.3,46.23 V 46.23 L 63.19,46.33 L 63.09,46.43 L 62.98,46.53 L 62.86,46.63 L 62.75,46.72 L 62.63,46.81 L 62.51,46.89 L 62.39,46.98 L 62.27,47.06 L 62.14,47.13 L 62.01,47.21 L 61.88,47.28 L 61.75,47.34 L 61.62,47.41 L 61.48,47.46 L 61.35,47.52 L 61.21,47.57 L 61.07,47.62 L 60.93,47.66 L 60.79,47.7 L 60.64,47.73 L 60.5,47.77 L 60.36,47.79 L 60.21,47.82 L 60.06,47.84 L 59.92,47.85 L 59.77,47.86 L 59.62,47.87 L 59.48,47.88 Z M 68.7,42.24 V 42.24 V 42.24 V 42.09 L 68.71,41.95 L 68.72,41.8 L 68.73,41.65 L 68.74,41.51 L 68.76,41.36 L 68.78,41.21 L 68.81,41.07 L 68.84,40.93 L 68.88,40.78 L 68.91,40.64 L 68.96,40.5 L 69,40.36 L 69.05,40.22 L 69.11,40.08 L 69.17,39.95 L 69.23,39.82 L 69.29,39.68 L 69.36,39.55 L 69.43,39.43 L 69.51,39.3 L 69.59,39.18 L 69.67,39.05 L 69.76,38.94 L 69.85,38.82 L 69.94,38.7 L 70.04,38.59 L 70.14,38.48 L 70.24,38.37 L 70.34,38.27 V 38.27 L 70.44,38.17 L 70.55,38.07 L 70.66,37.97 L 70.77,37.87 L 70.89,37.78 L 71.01,37.69 L 71.12,37.6 L 71.25,37.52 L 71.37,37.44 L 71.5,37.36 L 71.62,37.29 L 71.75,37.22 L 71.89,37.16 L 72.02,37.1 L 72.15,37.04 L 72.29,36.98 L 72.43,36.93 L 72.57,36.89 L 72.71,36.84 L 72.85,36.81 L 73,36.77 L 73.14,36.74 L 73.28,36.71 L 73.43,36.69 L 73.58,36.67 L 73.72,36.66 L 73.87,36.65 L 74.02,36.64 L 74.16,36.63 H 74.31 V 36.63 V 36.63 H 74.46 L 74.61,36.64 L 74.75,36.65 L 74.9,36.66 L 75.05,36.67 L 75.19,36.7 L 75.34,36.72 L 75.48,36.75 L 75.63,36.78 L 75.77,36.81 L 75.91,36.85 L 76.06,36.9 L 76.2,36.95 L 76.33,37 L 76.47,37.05 L 76.61,37.11 L 76.74,37.17 L 76.87,37.24 L 77,37.31 L 77.13,37.38 L 77.26,37.46 L 77.38,37.54 L 77.5,37.62 L 77.62,37.71 L 77.74,37.8 L 77.86,37.89 L 77.97,37.98 L 78.08,38.08 L 78.19,38.18 L 78.3,38.28 V 38.28 V 38.28 L 78.19,38.18 L 78.08,38.08 L 77.97,37.98 L 77.86,37.89 L 77.74,37.8 L 77.62,37.71 L 77.5,37.62 L 77.38,37.54 L 77.26,37.46 L 77.13,37.38 L 77,37.31 L 76.87,37.24 L 76.74,37.17 L 76.61,37.11 L 76.47,37.05 L 76.33,37 L 76.2,36.95 L 76.06,36.9 L 75.91,36.85 L 75.77,36.81 L 75.63,36.78 L 75.48,36.75 L 75.34,36.72 L 75.19,36.7 L 75.05,36.67 L 74.9,36.66 L 74.75,36.65 L 74.61,36.64 L 74.46,36.63 H 74.31 V 36.63 V 36.63 H 74.16 L 74.02,36.64 L 73.87,36.65 L 73.72,36.66 L 73.58,36.67 L 73.43,36.69 L 73.28,36.71 L 73.14,36.74 L 73,36.77 L 72.85,36.81 L 72.71,36.84 L 72.57,36.89 L 72.43,36.93 L 72.29,36.98 L 72.15,37.04 L 72.02,37.1 L 71.89,37.16 L 71.75,37.22 L 71.62,37.29 L 71.5,37.36 L 71.37,37.44 L 71.25,37.52 L 71.12,37.6 L 71.01,37.69 L 70.89,37.78 L 70.77,37.87 L 70.66,37.97 L 70.55,38.07 L 70.44,38.17 L 70.34,38.27 V 38.27 L 70.24,38.37 L 70.14,38.48 L 70.04,38.59 L 69.94,38.7 L 69.85,38.82 L 69.76,38.94 L 69.67,39.05 L 69.59,39.18 L 69.51,39.3 L 69.43,39.43 L 69.36,39.55 L 69.29,39.68 L 69.23,39.82 L 69.17,39.95 L 69.11,40.08 L 69.05,40.22 L 69,40.36 L 68.96,40.5 L 68.91,40.64 L 68.88,40.78 L 68.84,40.93 L 68.81,41.07 L 68.78,41.21 L 68.76,41.36 L 68.74,41.51 L 68.73,41.65 L 68.72,41.8 L 68.71,41.95 L 68.7,42.09 Z M 80.52,47.88 L 91.77,36.63 L 80.52,47.88 V 25.38 Z M 115.69,38.27 V 38.27 L 115.79,38.37 L 115.9,38.48 L 115.99,38.59 L 116.09,38.7 L 116.18,38.82 L 116.27,38.93 L 116.36,39.05 L 116.45,39.17 L 116.53,39.3 L 116.6,39.42 L 116.68,39.55 L 116.75,39.68 L 116.81,39.81 L 116.88,39.95 L 116.94,40.08 L 116.99,40.22 L 117.04,40.36 L 117.09,40.5 L 117.13,40.64 L 117.17,40.78 L 117.21,40.92 L 117.24,41.07 L 117.26,41.21 L 117.29,41.36 L 117.31,41.5 L 117.32,41.65 L 117.33,41.8 L 117.34,41.95 L 117.35,42.09 V 42.24 V 42.24 V 42.39 L 117.34,42.54 L 117.33,42.68 L 117.32,42.83 L 117.31,42.98 L 117.29,43.13 L 117.26,43.27 L 117.24,43.42 L 117.21,43.56 L 117.17,43.71 L 117.13,43.85 L 117.09,43.99 L 117.04,44.13 L 116.99,44.27 L 116.93,44.41 L 116.88,44.54 L 116.81,44.68 L 116.75,44.81 L 116.68,44.94 L 116.6,45.07 L 116.53,45.2 L 116.44,45.32 L 116.36,45.44 L 116.27,45.56 L 116.18,45.68 L 116.09,45.79 L 115.99,45.91 L 115.9,46.02 L 115.79,46.12 L 115.69,46.23 V 46.23 L 115.58,46.33 L 115.48,46.43 L 115.36,46.53 L 115.25,46.63 L 115.14,46.72 L 115.02,46.81 L 114.9,46.89 L 114.78,46.98 L 114.65,47.06 L 114.53,47.13 L 114.4,47.21 L 114.27,47.28 L 114.14,47.34 L 114,47.41 L 113.87,47.46 L 113.73,47.52 L 113.59,47.57 L 113.45,47.62 L 113.31,47.66 L 113.17,47.7 L 113.03,47.73 L 112.88,47.77 L 112.74,47.79 L 112.59,47.82 L 112.45,47.84 L 112.3,47.85 L 112.15,47.86 L 112.01,47.87 L 111.86,47.88 H 111.71 V 47.88 V 47.88 H 111.56 L 111.42,47.87 L 111.27,47.86 L 111.12,47.85 L 110.97,47.84 L 110.83,47.82 L 110.68,47.79 L 110.54,47.77 L 110.39,47.74 L 110.25,47.7 L 110.11,47.66 L 109.97,47.62 L 109.83,47.57 L 109.69,47.52 L 109.55,47.47 L 109.42,47.41 L 109.28,47.35 L 109.15,47.28 L 109.02,47.21 L 108.89,47.14 L 108.77,47.06 L 108.64,46.98 L 108.52,46.9 L 108.4,46.81 L 108.29,46.72 L 108.17,46.63 L 108.06,46.53 L 107.95,46.43 L 107.84,46.33 L 107.74,46.23 V 46.23 L 107.64,46.12 L 107.54,46.02 L 107.44,45.9 L 107.34,45.79 L 107.25,45.68 L 107.16,45.56 L 107.08,45.44 L 106.99,45.32 L 106.91,45.19 L 106.84,45.07 L 106.76,44.94 L 106.69,44.81 L 106.63,44.67 L 106.57,44.54 L 106.51,44.4 L 106.45,44.27 L 106.4,44.13 L 106.36,43.99 L 106.32,43.85 L 106.28,43.7 L 106.24,43.56 L 106.21,43.41 L 106.19,43.27 L 106.16,43.12 L 106.14,42.98 L 106.13,42.83 L 106.12,42.68 L 106.11,42.54 L 106.1,42.39 V 42.24 V 42.24 V 42.09 L 106.11,41.95 L 106.12,41.8 L 106.13,41.65 L 106.14,41.51 L 106.16,41.36 L 106.18,41.21 L 106.21,41.07 L 106.24,40.93 L 106.28,40.78 L 106.31,40.64 L 106.36,40.5 L 106.4,40.36 L 106.45,40.22 L 106.51,40.08 L 106.57,39.95 L 106.63,39.82 L 106.69,39.68 L 106.76,39.55 L 106.83,39.43 L 106.91,39.3 L 106.99,39.18 L 107.07,39.05 L 107.16,38.94 L 107.25,38.82 L 107.34,38.7 L 107.44,38.59 L 107.54,38.48 L 107.64,38.37 L 107.74,38.27 V 38.27 L 107.84,38.17 L 107.95,38.07 L 108.06,37.97 L 108.17,37.87 L 108.29,37.78 L 108.41,37.69 L 108.52,37.6 L 108.65,37.52 L 108.77,37.44 L 108.9,37.36 L 109.02,37.29 L 109.15,37.22 L 109.29,37.16 L 109.42,37.1 L 109.55,37.04 L 109.69,36.98 L 109.83,36.93 L 109.97,36.89 L 110.11,36.84 L 110.25,36.81 L 110.4,36.77 L 110.54,36.74 L 110.68,36.71 L 110.83,36.69 L 110.98,36.67 L 111.12,36.66 L 111.27,36.65 L 111.42,36.64 L 111.56,36.63 H 111.71 V 36.63 V 36.63 H 111.86 L 112,36.64 L 112.15,36.65 L 112.3,36.66 L 112.45,36.67 L 112.59,36.69 L 112.74,36.72 L 112.88,36.74 L 113.03,36.77 L 113.17,36.81 L 113.31,36.85 L 113.45,36.89 L 113.59,36.94 L 113.73,36.99 L 113.87,37.04 L 114,37.1 L 114.14,37.16 L 114.27,37.23 L 114.4,37.3 L 114.53,37.37 L 114.65,37.45 L 114.78,37.53 L 114.9,37.61 L 115.02,37.7 L 115.14,37.78 L 115.25,37.88 L 115.36,37.97 L 115.48,38.07 L 115.58,38.17 Z M 115.69,46.23 V 46.23 L 115.79,46.12 L 115.9,46.02 L 115.99,45.91 L 116.09,45.79 L 116.18,45.68 L 116.27,45.56 L 116.36,45.44 L 116.44,45.32 L 116.53,45.2 L 116.6,45.07 L 116.68,44.94 L 116.75,44.81 L 116.81,44.68 L 116.88,44.54 L 116.93,44.41 L 116.99,44.27 L 117.04,44.13 L 117.09,43.99 L 117.13,43.85 L 117.17,43.71 L 117.21,43.56 L 117.24,43.42 L 117.26,43.27 L 117.29,43.13 L 117.31,42.98 L 117.32,42.83 L 117.33,42.68 L 117.34,42.54 L 117.35,42.39 V 42.24 V 42.24 V 42.09 L 117.34,41.95 L 117.33,41.8 L 117.32,41.65 L 117.31,41.5 L 117.29,41.36 L 117.26,41.21 L 117.24,41.07 L 117.21,40.92 L 117.17,40.78 L 117.13,40.64 L 117.09,40.5 L 117.04,40.36 L 116.99,40.22 L 116.94,40.08 L 116.88,39.95 L 116.81,39.81 L 116.75,39.68 L 116.68,39.55 L 116.6,39.42 L 116.53,39.3 L 116.45,39.17 L 116.36,39.05 L 116.27,38.93 L 116.18,38.82 L 116.09,38.7 L 115.99,38.59 L 115.9,38.48 L 115.79,38.37 L 115.69,38.27 V 38.27 L 115.58,38.17 L 115.48,38.07 L 115.36,37.97 L 115.25,37.88 L 115.14,37.78 L 115.02,37.7 L 114.9,37.61 L 114.78,37.53 L 114.65,37.45 L 114.53,37.37 L 114.4,37.3 L 114.27,37.23 L 114.14,37.16 L 114,37.1 L 113.87,37.04 L 113.73,36.99 L 113.59,36.94 L 113.45,36.89 L 113.31,36.85 L 113.17,36.81 L 113.03,36.77 L 112.88,36.74 L 112.74,36.72 L 112.59,36.69 L 112.45,36.67 L 112.3,36.66 L 112.15,36.65 L 112,36.64 L 111.86,36.63 H 111.71 V 36.63 V 36.63 H 111.56 L 111.42,36.64 L 111.27,36.65 L 111.12,36.66 L 110.98,36.67 L 110.83,36.69 L 110.68,36.71 L 110.54,36.74 L 110.4,36.77 L 110.25,36.81 L 110.11,36.84 L 109.97,36.89 L 109.83,36.93 L 109.69,36.98 L 109.55,37.04 L 109.42,37.1 L 109.29,37.16 L 109.15,37.22 L 109.02,37.29 L 108.9,37.36 L 108.77,37.44 L 108.65,37.52 L 108.52,37.6 L 108.41,37.69 L 108.29,37.78 L 108.17,37.87 L 108.06,37.97 L 107.95,38.07 L 107.84,38.17 L 107.74,38.27 V 38.27 L 107.64,38.37 L 107.54,38.48 L 107.44,38.59 L 107.34,38.7 L 107.25,38.82 L 107.16,38.94 L 107.07,39.05 L 106.99,39.18 L 106.91,39.3 L 106.83,39.43 L 106.76,39.55 L 106.69,39.68 L 106.63,39.82 L 106.57,39.95 L 106.51,40.08 L 106.45,40.22 L 106.4,40.36 L 106.36,40.5 L 106.31,40.64 L 106.28,40.78 L 106.24,40.93 L 106.21,41.07 L 106.18,41.21 L 106.16,41.36 L 106.14,41.51 L 106.13,41.65 L 106.12,41.8 L 106.11,41.95 L 106.1,42.09 V 42.24 V 42.24 V 42.39 L 106.11,42.54 L 106.12,42.68 L 106.13,42.83 L 106.14,42.98 L 106.16,43.12 L 106.19,43.27 L 106.21,43.41 L 106.24,43.56 L 106.28,43.7 L 106.32,43.85 L 106.36,43.99 L 106.4,44.13 L 106.45,44.27 L 106.51,44.4 L 106.57,44.54 L 106.63,44.67 L 106.69,44.81 L 106.76,44.94 L 106.84,45.07 L 106.91,45.19 L 106.99,45.32 L 107.08,45.44 L 107.16,45.56 L 107.25,45.68 L 107.34,45.79 L 107.44,45.9 L 107.54,46.02 L 107.64,46.12 L 107.74,46.23 V 46.23 L 107.84,46.33 L 107.95,46.43 L 108.06,46.53 L 108.17,46.63 L 108.29,46.72 L 108.4,46.81 L 108.52,46.9 L 108.64,46.98 L 108.77,47.06 L 108.89,47.14 L 109.02,47.21 L 109.15,47.28 L 109.28,47.35 L 109.42,47.41 L 109.55,47.47 L 109.69,47.52 L 109.83,47.57 L 109.97,47.62 L 110.11,47.66 L 110.25,47.7 L 110.39,47.74 L 110.54,47.77 L 110.68,47.79 L 110.83,47.82 L 110.97,47.84 L 111.12,47.85 L 111.27,47.86 L 111.42,47.87 L 111.56,47.88 H 111.71 V 47.88 V 47.88 H 111.86 L 112.01,47.87 L 112.15,47.86 L 112.3,47.85 L 112.45,47.84 L 112.59,47.82 L 112.74,47.79 L 112.88,47.77 L 113.03,47.73 L 113.17,47.7 L 113.31,47.66 L 113.45,47.62 L 113.59,47.57 L 113.73,47.52 L 113.87,47.46 L 114,47.41 L 114.14,47.34 L 114.27,47.28 L 114.4,47.21 L 114.53,47.13 L 114.65,47.06 L 114.78,46.98 L 114.9,46.89 L 115.02,46.81 L 115.14,46.72 L 115.25,46.63 L 115.36,46.53 L 115.48,46.43 L 115.58,46.33 Z M 120.49,42.24 V 42.24 V 42.24 V 42.09 L 120.5,41.95 V 41.8 L 120.52,41.65 L 120.53,41.51 L 120.55,41.36 L 120.57,41.22 L 120.6,41.07 L 120.63,40.93 L 120.66,40.78 L 120.7,40.64 L 120.74,40.5 L 120.79,40.36 L 120.84,40.22 L 120.89,40.09 L 120.95,39.95 L 121.01,39.82 L 121.08,39.69 L 121.15,39.56 L 121.22,39.43 L 121.3,39.3 L 121.37,39.18 L 121.46,39.06 L 121.54,38.94 L 121.63,38.82 L 121.72,38.7 L 121.82,38.59 L 121.92,38.48 L 122.02,38.38 L 122.12,38.27 V 38.27 L 122.23,38.17 L 122.33,38.07 L 122.44,37.97 L 122.56,37.87 L 122.67,37.78 L 122.79,37.69 L 122.91,37.6 L 123.03,37.52 L 123.15,37.44 L 123.28,37.37 L 123.41,37.29 L 123.54,37.22 L 123.67,37.16 L 123.8,37.1 L 123.94,37.04 L 124.08,36.98 L 124.22,36.93 L 124.36,36.89 L 124.5,36.85 L 124.64,36.81 L 124.78,36.77 L 124.93,36.74 L 125.07,36.71 L 125.22,36.69 L 125.36,36.67 L 125.51,36.66 L 125.66,36.65 L 125.81,36.64 L 125.95,36.63 H 126.1 V 36.63 V 36.63 H 126.25 L 126.4,36.64 L 126.54,36.65 L 126.69,36.66 L 126.84,36.67 L 126.98,36.7 L 127.13,36.72 L 127.27,36.75 L 127.42,36.78 L 127.56,36.81 L 127.7,36.85 L 127.85,36.9 L 127.99,36.95 L 128.12,37 L 128.26,37.05 L 128.4,37.11 L 128.53,37.17 L 128.66,37.24 L 128.79,37.31 L 128.92,37.38 L 129.05,37.46 L 129.17,37.54 L 129.29,37.62 L 129.41,37.71 L 129.53,37.8 L 129.65,37.89 L 129.76,37.98 L 129.87,38.08 L 129.98,38.18 L 130.09,38.28 V 38.28 V 38.28 L 129.98,38.18 L 129.87,38.08 L 129.76,37.98 L 129.65,37.89 L 129.53,37.8 L 129.41,37.71 L 129.29,37.62 L 129.17,37.54 L 129.05,37.46 L 128.92,37.38 L 128.79,37.31 L 128.66,37.24 L 128.53,37.17 L 128.4,37.11 L 128.26,37.05 L 128.12,37 L 127.99,36.95 L 127.85,36.9 L 127.7,36.85 L 127.56,36.81 L 127.42,36.78 L 127.27,36.75 L 127.13,36.72 L 126.98,36.7 L 126.84,36.67 L 126.69,36.66 L 126.54,36.65 L 126.4,36.64 L 126.25,36.63 H 126.1 V 36.63 V 36.63 H 125.95 L 125.81,36.64 L 125.66,36.65 L 125.51,36.66 L 125.36,36.67 L 125.22,36.69 L 125.07,36.71 L 124.93,36.74 L 124.78,36.77 L 124.64,36.81 L 124.5,36.85 L 124.36,36.89 L 124.22,36.93 L 124.08,36.98 L 123.94,37.04 L 123.8,37.1 L 123.67,37.16 L 123.54,37.22 L 123.41,37.29 L 123.28,37.37 L 123.15,37.44 L 123.03,37.52 L 122.91,37.6 L 122.79,37.69 L 122.67,37.78 L 122.56,37.87 L 122.44,37.97 L 122.33,38.07 L 122.23,38.17 L 122.12,38.27 V 38.27 L 122.02,38.38 L 121.92,38.48 L 121.82,38.59 L 121.72,38.7 L 121.63,38.82 L 121.54,38.94 L 121.46,39.06 L 121.37,39.18 L 121.3,39.3 L 121.22,39.43 L 121.15,39.56 L 121.08,39.69 L 121.01,39.82 L 120.95,39.95 L 120.89,40.09 L 120.84,40.22 L 120.79,40.36 L 120.74,40.5 L 120.7,40.64 L 120.66,40.78 L 120.63,40.93 L 120.6,41.07 L 120.57,41.22 L 120.55,41.36 L 120.53,41.51 L 120.52,41.65 L 120.5,41.8 V 41.95 L 120.49,42.09 Z M 157.27,38.27 V 38.27 L 157.37,38.37 L 157.48,38.48 L 157.57,38.59 L 157.67,38.7 L 157.76,38.82 L 157.85,38.93 L 157.94,39.05 L 158.03,39.17 L 158.11,39.3 L 158.18,39.42 L 158.26,39.55 L 158.33,39.68 L 158.39,39.81 L 158.46,39.95 L 158.52,40.08 L 158.57,40.22 L 158.62,40.36 L 158.67,40.5 L 158.71,40.64 L 158.75,40.78 L 158.79,40.92 L 158.82,41.07 L 158.84,41.21 L 158.87,41.36 L 158.89,41.5 L 158.9,41.65 L 158.91,41.8 L 158.92,41.95 L 158.93,42.09 V 42.24 V 42.24 V 42.39 L 158.92,42.54 L 158.91,42.68 L 158.9,42.83 L 158.89,42.98 L 158.87,43.13 L 158.84,43.27 L 158.82,43.42 L 158.79,43.56 L 158.75,43.71 L 158.71,43.85 L 158.67,43.99 L 158.62,44.13 L 158.57,44.27 L 158.51,44.41 L 158.46,44.54 L 158.39,44.68 L 158.33,44.81 L 158.26,44.94 L 158.18,45.07 L 158.11,45.2 L 158.02,45.32 L 157.94,45.44 L 157.85,45.56 L 157.76,45.68 L 157.67,45.79 L 157.57,45.91 L 157.48,46.02 L 157.37,46.12 L 157.27,46.23 V 46.23 L 157.16,46.33 L 157.06,46.43 L 156.94,46.53 L 156.83,46.63 L 156.72,46.72 L 156.6,46.81 L 156.48,46.89 L 156.36,46.98 L 156.23,47.06 L 156.11,47.13 L 155.98,47.21 L 155.85,47.28 L 155.72,47.34 L 155.58,47.41 L 155.45,47.46 L 155.31,47.52 L 155.17,47.57 L 155.03,47.62 L 154.89,47.66 L 154.75,47.7 L 154.61,47.73 L 154.46,47.77 L 154.32,47.79 L 154.17,47.82 L 154.03,47.84 L 153.88,47.85 L 153.73,47.86 L 153.58,47.87 L 153.44,47.88 H 153.29 V 47.88 V 47.88 H 153.14 L 153,47.87 L 152.85,47.86 L 152.7,47.85 L 152.55,47.84 L 152.41,47.82 L 152.26,47.79 L 152.12,47.77 L 151.97,47.74 L 151.83,47.7 L 151.69,47.66 L 151.55,47.62 L 151.41,47.57 L 151.27,47.52 L 151.13,47.47 L 151,47.41 L 150.86,47.35 L 150.73,47.28 L 150.6,47.21 L 150.47,47.14 L 150.35,47.06 L 150.22,46.98 L 150.1,46.9 L 149.98,46.81 L 149.87,46.72 L 149.75,46.63 L 149.64,46.53 L 149.53,46.43 L 149.42,46.33 L 149.32,46.23 V 46.23 L 149.22,46.12 L 149.12,46.02 L 149.02,45.9 L 148.92,45.79 L 148.83,45.68 L 148.74,45.56 L 148.66,45.44 L 148.57,45.32 L 148.49,45.19 L 148.42,45.07 L 148.34,44.94 L 148.27,44.81 L 148.21,44.67 L 148.15,44.54 L 148.09,44.4 L 148.03,44.27 L 147.98,44.13 L 147.94,43.99 L 147.9,43.85 L 147.86,43.7 L 147.82,43.56 L 147.79,43.41 L 147.76,43.27 L 147.74,43.12 L 147.72,42.98 L 147.71,42.83 L 147.7,42.68 L 147.69,42.54 L 147.68,42.39 V 42.24 V 42.24 V 42.09 L 147.69,41.95 L 147.7,41.8 L 147.71,41.65 L 147.72,41.51 L 147.74,41.36 L 147.76,41.21 L 147.79,41.07 L 147.82,40.93 L 147.86,40.78 L 147.89,40.64 L 147.94,40.5 L 147.98,40.36 L 148.03,40.22 L 148.09,40.08 L 148.15,39.95 L 148.21,39.82 L 148.27,39.68 L 148.34,39.55 L 148.41,39.43 L 148.49,39.3 L 148.57,39.18 L 148.65,39.05 L 148.74,38.94 L 148.83,38.82 L 148.92,38.7 L 149.02,38.59 L 149.12,38.48 L 149.22,38.37 L 149.32,38.27 V 38.27 L 149.42,38.17 L 149.53,38.07 L 149.64,37.97 L 149.75,37.87 L 149.87,37.78 L 149.99,37.69 L 150.1,37.6 L 150.23,37.52 L 150.35,37.44 L 150.48,37.36 L 150.6,37.29 L 150.73,37.22 L 150.87,37.16 L 151,37.1 L 151.13,37.04 L 151.27,36.98 L 151.41,36.93 L 151.55,36.89 L 151.69,36.84 L 151.83,36.81 L 151.98,36.77 L 152.12,36.74 L 152.26,36.71 L 152.41,36.69 L 152.56,36.67 L 152.7,36.66 L 152.85,36.65 L 153,36.64 L 153.14,36.63 H 153.29 V 36.63 V 36.63 H 153.44 L 153.58,36.64 L 153.73,36.65 L 153.88,36.66 L 154.03,36.67 L 154.17,36.69 L 154.32,36.72 L 154.46,36.74 L 154.61,36.77 L 154.75,36.81 L 154.89,36.85 L 155.03,36.89 L 155.17,36.94 L 155.31,36.99 L 155.45,37.04 L 155.58,37.1 L 155.72,37.16 L 155.85,37.23 L 155.98,37.3 L 156.11,37.37 L 156.23,37.45 L 156.36,37.53 L 156.48,37.61 L 156.6,37.7 L 156.72,37.78 L 156.83,37.88 L 156.94,37.97 L 157.06,38.07 L 157.16,38.17 Z M 157.27,46.23 V 46.23 L 157.37,46.12 L 157.48,46.02 L 157.57,45.91 L 157.67,45.79 L 157.76,45.68 L 157.85,45.56 L 157.94,45.44 L 158.02,45.32 L 158.11,45.2 L 158.18,45.07 L 158.26,44.94 L 158.33,44.81 L 158.39,44.68 L 158.46,44.54 L 158.51,44.41 L 158.57,44.27 L 158.62,44.13 L 158.67,43.99 L 158.71,43.85 L 158.75,43.71 L 158.79,43.56 L 158.82,43.42 L 158.84,43.27 L 158.87,43.13 L 158.89,42.98 L 158.9,42.83 L 158.91,42.68 L 158.92,42.54 L 158.93,42.39 V 42.24 V 42.24 V 42.09 L 158.92,41.95 L 158.91,41.8 L 158.9,41.65 L 158.89,41.5 L 158.87,41.36 L 158.84,41.21 L 158.82,41.07 L 158.79,40.92 L 158.75,40.78 L 158.71,40.64 L 158.67,40.5 L 158.62,40.36 L 158.57,40.22 L 158.52,40.08 L 158.46,39.95 L 158.39,39.81 L 158.33,39.68 L 158.26,39.55 L 158.18,39.42 L 158.11,39.3 L 158.03,39.17 L 157.94,39.05 L 157.85,38.93 L 157.76,38.82 L 157.67,38.7 L 157.57,38.59 L 157.48,38.48 L 157.37,38.37 L 157.27,38.27 V 38.27 L 157.16,38.17 L 157.06,38.07 L 156.94,37.97 L 156.83,37.88 L 156.72,37.78 L 156.6,37.7 L 156.48,37.61 L 156.36,37.53 L 156.23,37.45 L 156.11,37.37 L 155.98,37.3 L 155.85,37.23 L 155.72,37.16 L 155.58,37.1 L 155.45,37.04 L 155.31,36.99 L 155.17,36.94 L 155.03,36.89 L 154.89,36.85 L 154.75,36.81 L 154.61,36.77 L 154.46,36.74 L 154.32,36.72 L 154.17,36.69 L 154.03,36.67 L 153.88,36.66 L 153.73,36.65 L 153.58,36.64 L 153.44,36.63 H 153.29 V 36.63 V 36.63 H 153.14 L 153,36.64 L 152.85,36.65 L 152.7,36.66 L 152.56,36.67 L 152.41,36.69 L 152.26,36.71 L 152.12,36.74 L 151.98,36.77 L 151.83,36.81 L 151.69,36.84 L 151.55,36.89 L 151.41,36.93 L 151.27,36.98 L 151.13,37.04 L 151,37.1 L 150.87,37.16 L 150.73,37.22 L 150.6,37.29 L 150.48,37.36 L 150.35,37.44 L 150.23,37.52 L 150.1,37.6 L 149.99,37.69 L 149.87,37.78 L 149.75,37.87 L 149.64,37.97 L 149.53,38.07 L 149.42,38.17 L 149.32,38.27 V 38.27 L 149.22,38.37 L 149.12,38.48 L 149.02,38.59 L 148.92,38.7 L 148.83,38.82 L 148.74,38.94 L 148.65,39.05 L 148.57,39.18 L 148.49,39.3 L 148.41,39.43 L 148.34,39.55 L 148.27,39.68 L 148.21,39.82 L 148.15,39.95 L 148.09,40.08 L 148.03,40.22 L 147.98,40.36 L 147.94,40.5 L 147.89,40.64 L 147.86,40.78 L 147.82,40.93 L 147.79,41.07 L 147.76,41.21 L 147.74,41.36 L 147.72,41.51 L 147.71,41.65 L 147.7,41.8 L 147.69,41.95 L 147.68,42.09 V 42.24 V 42.24 V 42.39 L 147.69,42.54 L 147.7,42.68 L 147.71,42.83 L 147.72,42.98 L 147.74,43.12 L 147.76,43.27 L 147.79,43.41 L 147.82,43.56 L 147.86,43.7 L 147.9,43.85 L 147.94,43.99 L 147.98,44.13 L 148.03,44.27 L 148.09,44.4 L 148.15,44.54 L 148.21,44.67 L 148.27,44.81 L 148.34,44.94 L 148.42,45.07 L 148.49,45.19 L 148.57,45.32 L 148.66,45.44 L 148.74,45.56 L 148.83,45.68 L 148.92,45.79 L 149.02,45.9 L 149.12,46.02 L 149.22,46.12 L 149.32,46.23 V 46.23 L 149.42,46.33 L 149.53,46.43 L 149.64,46.53 L 149.75,46.63 L 149.87,46.72 L 149.98,46.81 L 150.1,46.9 L 150.22,46.98 L 150.35,47.06 L 150.47,47.14 L 150.6,47.21 L 150.73,47.28 L 150.86,47.35 L 151,47.41 L 151.13,47.47 L 151.27,47.52 L 151.41,47.57 L 151.55,47.62 L 151.69,47.66 L 151.83,47.7 L 151.97,47.74 L 152.12,47.77 L 152.26,47.79 L 152.41,47.82 L 152.55,47.84 L 152.7,47.85 L 152.85,47.86 L 153,47.87 L 153.14,47.88 H 153.29 V 47.88 V 47.88 H 153.44 L 153.58,47.87 L 153.73,47.86 L 153.88,47.85 L 154.03,47.84 L 154.17,47.82 L 154.32,47.79 L 154.46,47.77 L 154.61,47.73 L 154.75,47.7 L 154.89,47.66 L 155.03,47.62 L 155.17,47.57 L 155.31,47.52 L 155.45,47.46 L 155.58,47.41 L 155.72,47.34 L 155.85,47.28 L 155.98,47.21 L 156.11,47.13 L 156.23,47.06 L 156.36,46.98 L 156.48,46.89 L 156.6,46.81 L 156.72,46.72 L 156.83,46.63 L 156.94,46.53 L 157.06,46.43 L 157.16,46.33 Z M 44.16,47.64 L 38.55,36.39 L 44.16,47.64 L 49.8,36.39 Z M 59.33,47.88 V 47.88 V 47.88 H 59.48 L 59.62,47.87 L 59.77,47.86 L 59.92,47.85 L 60.06,47.84 L 60.21,47.82 L 60.36,47.79 L 60.5,47.77 L 60.64,47.73 L 60.79,47.7 L 60.93,47.66 L 61.07,47.62 L 61.21,47.57 L 61.35,47.52 L 61.48,47.46 L 61.62,47.41 L 61.75,47.34 L 61.88,47.28 L 62.01,47.21 L 62.14,47.13 L 62.27,47.06 L 62.39,46.98 L 62.51,46.89 L 62.63,46.81 L 62.75,46.72 L 62.86,46.63 L 62.98,46.53 L 63.09,46.43 L 63.19,46.33 L 63.3,46.23 V 46.23 L 63.4,46.12 L 63.51,46.02 L 63.61,45.91 L 63.7,45.79 L 63.8,45.68 L 63.89,45.56 L 63.97,45.44 L 64.06,45.32 L 64.14,45.2 L 64.22,45.07 L 64.29,44.94 L 64.36,44.81 L 64.43,44.68 L 64.49,44.55 L 64.55,44.41 L 64.61,44.27 L 64.66,44.13 L 64.71,43.99 L 64.75,43.85 L 64.79,43.71 L 64.82,43.56 L 64.86,43.42 L 64.88,43.27 L 64.91,43.13 L 64.93,42.98 L 64.94,42.83 L 64.95,42.68 L 64.96,42.54 L 64.97,42.39 V 42.24 V 42.24 V 42.09 L 64.96,41.94 L 64.95,41.8 L 64.94,41.65 L 64.93,41.5 L 64.91,41.36 L 64.88,41.21 L 64.86,41.07 L 64.82,40.92 L 64.79,40.78 L 64.75,40.64 L 64.71,40.49 L 64.66,40.35 L 64.61,40.22 L 64.55,40.08 L 64.49,39.94 L 64.43,39.81 L 64.36,39.68 L 64.29,39.55 L 64.22,39.42 L 64.14,39.3 L 64.06,39.17 L 63.98,39.05 L 63.89,38.93 L 63.8,38.82 L 63.7,38.7 L 63.61,38.59 L 63.51,38.48 L 63.4,38.37 L 63.3,38.27 V 38.27 L 63.19,38.17 L 63.09,38.07 L 62.98,37.97 L 62.86,37.88 L 62.75,37.78 L 62.63,37.7 L 62.51,37.61 L 62.39,37.53 L 62.27,37.45 L 62.14,37.37 L 62.01,37.3 L 61.88,37.23 L 61.75,37.16 L 61.62,37.1 L 61.48,37.04 L 61.35,36.99 L 61.21,36.94 L 61.07,36.89 L 60.93,36.85 L 60.79,36.81 L 60.64,36.77 L 60.5,36.74 L 60.35,36.72 L 60.21,36.69 L 60.06,36.67 L 59.92,36.66 L 59.77,36.65 L 59.62,36.64 L 59.48,36.63 H 59.33 V 36.63 V 36.63 H 59.18 L 59.04,36.64 L 58.89,36.65 L 58.74,36.66 L 58.59,36.67 L 58.45,36.69 L 58.3,36.71 L 58.16,36.74 L 58.01,36.77 L 57.87,36.81 L 57.73,36.85 L 57.59,36.89 L 57.45,36.93 L 57.31,36.98 L 57.17,37.04 L 57.03,37.1 L 56.9,37.16 L 56.77,37.22 L 56.64,37.29 L 56.51,37.37 L 56.38,37.44 L 56.26,37.52 L 56.14,37.6 L 56.02,37.69 L 55.9,37.78 L 55.79,37.87 L 55.67,37.97 L 55.56,38.07 L 55.46,38.17 L 55.35,38.27 V 38.27 L 55.25,38.38 L 55.15,38.48 L 55.05,38.59 L 54.95,38.7 L 54.86,38.82 L 54.77,38.94 L 54.69,39.06 L 54.6,39.18 L 54.53,39.3 L 54.45,39.43 L 54.38,39.56 L 54.31,39.69 L 54.24,39.82 L 54.18,39.95 L 54.12,40.09 L 54.07,40.22 L 54.02,40.36 L 53.97,40.5 L 53.93,40.64 L 53.89,40.78 L 53.86,40.93 L 53.83,41.07 L 53.8,41.22 L 53.78,41.36 L 53.76,41.51 L 53.75,41.65 L 53.73,41.8 V 41.95 L 53.72,42.09 V 42.24 V 42.24 V 42.39 L 53.73,42.54 L 53.74,42.68 L 53.75,42.83 L 53.76,42.98 L 53.78,43.12 L 53.8,43.27 L 53.83,43.41 L 53.86,43.56 L 53.9,43.7 L 53.93,43.84 L 53.98,43.99 L 54.02,44.13 L 54.07,44.27 L 54.13,44.4 L 54.18,44.54 L 54.24,44.67 L 54.31,44.81 L 54.38,44.94 L 54.45,45.06 L 54.53,45.19 L 54.61,45.32 L 54.69,45.44 L 54.77,45.56 L 54.86,45.68 L 54.96,45.79 L 55.05,45.9 L 55.15,46.02 L 55.25,46.12 L 55.35,46.23 V 46.23 L 55.46,46.33 L 55.56,46.43 L 55.67,46.53 L 55.79,46.63 L 55.9,46.72 L 56.02,46.81 L 56.14,46.9 L 56.26,46.98 L 56.38,47.06 L 56.51,47.14 L 56.64,47.21 L 56.77,47.28 L 56.9,47.35 L 57.03,47.41 L 57.17,47.47 L 57.31,47.52 L 57.44,47.57 L 57.58,47.62 L 57.73,47.66 L 57.87,47.7 L 58.01,47.74 L 58.16,47.77 L 58.3,47.79 L 58.45,47.82 L 58.59,47.84 L 58.74,47.85 L 58.89,47.86 L 59.03,47.87 L 59.18,47.88 Z M 68.7,36.63 V 47.88 Z M 91.77,47.88 L 86.13,42.24 Z M 103.73,41.58 H 95.3 Z M 117.35,47.88 V 42.24 Z M 120.49,36.63 V 47.88 Z M 143.56,42.24 V 42.24 V 42.24 V 42.39 L 143.55,42.54 L 143.54,42.68 L 143.53,42.83 L 143.52,42.98 L 143.5,43.12 L 143.47,43.27 L 143.45,43.42 L 143.42,43.56 L 143.38,43.7 L 143.34,43.85 L 143.3,43.99 L 143.25,44.13 L 143.2,44.27 L 143.15,44.41 L 143.09,44.54 L 143.03,44.68 L 142.96,44.81 L 142.89,44.94 L 142.82,45.07 L 142.74,45.19 L 142.66,45.32 L 142.58,45.44 L 142.49,45.56 L 142.4,45.68 L 142.31,45.79 L 142.21,45.91 L 142.11,46.02 L 142.01,46.12 L 141.91,46.23 V 46.23 V 46.23 L 141.8,46.33 L 141.69,46.43 L 141.58,46.53 L 141.47,46.62 L 141.35,46.71 L 141.23,46.8 L 141.11,46.89 L 140.99,46.97 L 140.87,47.05 L 140.74,47.13 L 140.61,47.2 L 140.48,47.27 L 140.35,47.34 L 140.22,47.4 L 140.08,47.46 L 139.94,47.51 L 139.81,47.56 L 139.67,47.61 L 139.52,47.66 L 139.38,47.7 L 139.24,47.73 L 139.09,47.76 L 138.95,47.79 L 138.8,47.81 L 138.66,47.84 L 138.51,47.85 L 138.36,47.86 L 138.22,47.87 L 138.07,47.88 H 137.92 V 47.88 H 137.77 L 137.62,47.87 L 137.48,47.86 L 137.33,47.85 L 137.18,47.84 L 137.04,47.81 L 136.89,47.79 L 136.75,47.76 L 136.6,47.73 L 136.46,47.7 L 136.32,47.66 L 136.17,47.61 L 136.03,47.56 L 135.9,47.51 L 135.76,47.46 L 135.62,47.4 L 135.49,47.34 L 135.36,47.27 L 135.23,47.2 L 135.1,47.13 L 134.97,47.05 L 134.85,46.97 L 134.73,46.89 L 134.61,46.8 L 134.49,46.71 L 134.37,46.62 L 134.26,46.53 L 134.15,46.43 L 134.04,46.33 L 133.93,46.23 V 46.23 V 46.23 L 133.83,46.12 L 133.73,46.02 L 133.63,45.91 L 133.53,45.79 L 133.44,45.68 L 133.35,45.56 L 133.27,45.44 L 133.18,45.32 L 133.11,45.19 L 133.03,45.07 L 132.96,44.94 L 132.89,44.81 L 132.82,44.67 L 132.76,44.54 L 132.71,44.4 L 132.65,44.27 L 132.61,44.13 L 132.56,43.99 L 132.52,43.84 L 132.48,43.7 L 132.45,43.56 L 132.42,43.41 L 132.39,43.27 L 132.37,43.12 L 132.35,42.98 L 132.34,42.83 L 132.32,42.68 V 42.54 L 132.31,42.39 V 42.24 V 42.24 V 42.24 V 42.09 L 132.32,41.95 V 41.8 L 132.34,41.65 L 132.35,41.51 L 132.37,41.36 L 132.39,41.22 L 132.42,41.07 L 132.45,40.93 L 132.48,40.78 L 132.52,40.64 L 132.56,40.5 L 132.61,40.36 L 132.66,40.22 L 132.71,40.09 L 132.77,39.95 L 132.83,39.82 L 132.9,39.69 L 132.97,39.56 L 133.04,39.43 L 133.12,39.3 L 133.19,39.18 L 133.28,39.06 L 133.36,38.94 L 133.45,38.82 L 133.54,38.7 L 133.64,38.59 L 133.74,38.48 L 133.84,38.38 L 133.94,38.27 V 38.27 L 134.05,38.17 L 134.15,38.07 L 134.26,37.97 L 134.38,37.87 L 134.49,37.78 L 134.61,37.69 L 134.73,37.6 L 134.85,37.52 L 134.97,37.44 L 135.1,37.37 L 135.23,37.29 L 135.36,37.22 L 135.49,37.16 L 135.62,37.1 L 135.76,37.04 L 135.9,36.98 L 136.04,36.93 L 136.18,36.89 L 136.32,36.85 L 136.46,36.81 L 136.6,36.77 L 136.75,36.74 L 136.89,36.71 L 137.04,36.69 L 137.18,36.67 L 137.33,36.66 L 137.48,36.65 L 137.63,36.64 L 137.77,36.63 H 137.92 V 36.63 V 36.63 H 138.07 L 138.22,36.64 L 138.36,36.65 L 138.51,36.66 L 138.66,36.67 L 138.8,36.7 L 138.95,36.72 L 139.09,36.75 L 139.24,36.78 L 139.38,36.81 L 139.52,36.85 L 139.67,36.9 L 139.81,36.95 L 139.94,37 L 140.08,37.05 L 140.22,37.11 L 140.35,37.17 L 140.48,37.24 L 140.61,37.31 L 140.74,37.38 L 140.87,37.46 L 140.99,37.54 L 141.11,37.62 L 141.23,37.71 L 141.35,37.8 L 141.47,37.89 L 141.58,37.98 L 141.69,38.08 L 141.8,38.18 L 141.91,38.28 V 38.28 L 133.93,46.23 L 141.91,38.28 V 38.28 L 141.8,38.18 L 141.69,38.08 L 141.58,37.98 L 141.47,37.89 L 141.35,37.8 L 141.23,37.71 L 141.11,37.62 L 140.99,37.54 L 140.87,37.46 L 140.74,37.38 L 140.61,37.31 L 140.48,37.24 L 140.35,37.17 L 140.22,37.11 L 140.08,37.05 L 139.94,37 L 139.81,36.95 L 139.67,36.9 L 139.52,36.85 L 139.38,36.81 L 139.24,36.78 L 139.09,36.75 L 138.95,36.72 L 138.8,36.7 L 138.66,36.67 L 138.51,36.66 L 138.36,36.65 L 138.22,36.64 L 138.07,36.63 H 137.92 V 36.63 V 36.63 H 137.77 L 137.63,36.64 L 137.48,36.65 L 137.33,36.66 L 137.18,36.67 L 137.04,36.69 L 136.89,36.71 L 136.75,36.74 L 136.6,36.77 L 136.46,36.81 L 136.32,36.85 L 136.18,36.89 L 136.04,36.93 L 135.9,36.98 L 135.76,37.04 L 135.62,37.1 L 135.49,37.16 L 135.36,37.22 L 135.23,37.29 L 135.1,37.37 L 134.97,37.44 L 134.85,37.52 L 134.73,37.6 L 134.61,37.69 L 134.49,37.78 L 134.38,37.87 L 134.26,37.97 L 134.15,38.07 L 134.05,38.17 L 133.94,38.27 V 38.27 L 133.84,38.38 L 133.74,38.48 L 133.64,38.59 L 133.54,38.7 L 133.45,38.82 L 133.36,38.94 L 133.28,39.06 L 133.19,39.18 L 133.12,39.3 L 133.04,39.43 L 132.97,39.56 L 132.9,39.69 L 132.83,39.82 L 132.77,39.95 L 132.71,40.09 L 132.66,40.22 L 132.61,40.36 L 132.56,40.5 L 132.52,40.64 L 132.48,40.78 L 132.45,40.93 L 132.42,41.07 L 132.39,41.22 L 132.37,41.36 L 132.35,41.51 L 132.34,41.65 L 132.32,41.8 V 41.95 L 132.31,42.09 V 42.24 V 42.24 V 42.24 V 42.39 L 132.32,42.54 V 42.68 L 132.34,42.83 L 132.35,42.98 L 132.37,43.12 L 132.39,43.27 L 132.42,43.41 L 132.45,43.56 L 132.48,43.7 L 132.52,43.84 L 132.56,43.99 L 132.61,44.13 L 132.65,44.27 L 132.71,44.4 L 132.76,44.54 L 132.82,44.67 L 132.89,44.81 L 132.96,44.94 L 133.03,45.07 L 133.11,45.19 L 133.18,45.32 L 133.27,45.44 L 133.35,45.56 L 133.44,45.68 L 133.53,45.79 L 133.63,45.91 L 133.73,46.02 L 133.83,46.12 L 133.93,46.23 V 46.23 V 46.23 L 134.04,46.33 L 134.15,46.43 L 134.26,46.53 L 134.37,46.62 L 134.49,46.71 L 134.61,46.8 L 134.73,46.89 L 134.85,46.97 L 134.97,47.05 L 135.1,47.13 L 135.23,47.2 L 135.36,47.27 L 135.49,47.34 L 135.62,47.4 L 135.76,47.46 L 135.9,47.51 L 136.03,47.56 L 136.17,47.61 L 136.32,47.66 L 136.46,47.7 L 136.6,47.73 L 136.75,47.76 L 136.89,47.79 L 137.04,47.81 L 137.18,47.84 L 137.33,47.85 L 137.48,47.86 L 137.62,47.87 L 137.77,47.88 H 137.92 V 47.88 H 138.07 L 138.22,47.87 L 138.36,47.86 L 138.51,47.85 L 138.66,47.84 L 138.8,47.81 L 138.95,47.79 L 139.09,47.76 L 139.24,47.73 L 139.38,47.7 L 139.52,47.66 L 139.67,47.61 L 139.81,47.56 L 139.94,47.51 L 140.08,47.46 L 140.22,47.4 L 140.35,47.34 L 140.48,47.27 L 140.61,47.2 L 140.74,47.13 L 140.87,47.05 L 140.99,46.97 L 141.11,46.89 L 141.23,46.8 L 141.35,46.71 L 141.47,46.62 L 141.58,46.53 L 141.69,46.43 L 141.8,46.33 L 141.91,46.23 V 46.23 V 46.23 L 142.01,46.12 L 142.11,46.02 L 142.21,45.91 L 142.31,45.79 L 142.4,45.68 L 142.49,45.56 L 142.58,45.44 L 142.66,45.32 L 142.74,45.19 L 142.82,45.07 L 142.89,44.94 L 142.96,44.81 L 143.03,44.68 L 143.09,44.54 L 143.15,44.41 L 143.2,44.27 L 143.25,44.13 L 143.3,43.99 L 143.34,43.85 L 143.38,43.7 L 143.42,43.56 L 143.45,43.42 L 143.47,43.27 L 143.5,43.12 L 143.52,42.98 L 143.53,42.83 L 143.54,42.68 L 143.55,42.54 L 143.56,42.39 Z M 158.93,47.88 V 42.24 Z"
                 id="path9" /><path
                 d="M 0.80193016,2.8799623 L 0.05830882,1.4244557 L 0.80193016,2.8799623 L 1.5495281,1.4244557 Z M 3.9301768,2.9110118 V 2.9110118 V 2.9110118 H 3.9102939 L 3.890411,2.9097186 L 3.8718535,2.9084255 L 3.8519708,2.907131 L 3.8320877,2.9058378 L 3.8135304,2.9032501 L 3.7936476,2.8993679 L 3.7750901,2.8967803 L 3.7552071,2.8928993 L 3.7366497,2.887724 L 3.7180922,2.8825486 L 3.6982095,2.8773745 L 3.679652,2.8709047 L 3.6624201,2.8644362 L 3.6438627,2.8579676 L 3.6253053,2.8502045 L 3.6080735,2.8424416 L 3.5908416,2.8333852 L 3.5736096,2.824329 L 3.5563779,2.8152729 L 3.539146,2.8049221 L 3.5232397,2.7945714 L 3.5073334,2.7842219 L 3.4914269,2.7725781 L 3.4755206,2.7609342 L 3.46094,2.7492902 L 3.4450335,2.7363517 L 3.4304527,2.7234134 L 3.4171973,2.7104762 L 3.4026167,2.6975378 V 2.6975378 L 3.3893612,2.6833062 L 3.3761061,2.6703691 L 3.3628508,2.654843 L 3.3509209,2.6406115 L 3.3376657,2.6263798 L 3.325736,2.610855 L 3.3151318,2.595329 L 3.3045276,2.5798042 L 3.2939233,2.5629849 L 3.283319,2.5461656 L 3.2740403,2.5306408 L 3.2647617,2.5138216 L 3.2554831,2.4957078 L 3.2475298,2.4788885 L 3.2409022,2.460776 L 3.2329489,2.4439567 L 3.2263215,2.4258443 L 3.2210193,2.4077305 L 3.2143915,2.3883235 L 3.2104151,2.3702111 L 3.2051128,2.3520986 L 3.2011362,2.3326917 L 3.1971598,2.3145792 L 3.1945086,2.2951722 L 3.1918574,2.2770584 L 3.1905322,2.2576514 L 3.1892065,2.2382458 L 3.1878811,2.220132 L 3.1865556,2.2007251 V 2.1813194 V 2.1813194 V 2.1619124 L 3.1878811,2.1437986 V 2.1243931 L 3.1905322,2.1049861 L 3.1918574,2.0868723 L 3.1945086,2.0674666 L 3.1971598,2.0493529 L 3.2011362,2.0299458 L 3.2051128,2.0118335 L 3.2090895,1.9924265 L 3.2143915,1.974314 L 3.2196939,1.9562002 L 3.2263215,1.9380877 L 3.2329489,1.919974 L 3.2395767,1.903156 L 3.2475298,1.8850422 L 3.2554831,1.8682229 L 3.2647617,1.8514036 L 3.2740403,1.8345843 L 3.283319,1.8177664 L 3.2939233,1.8009471 L 3.3032019,1.785421 L 3.3151318,1.7698962 L 3.325736,1.7543702 L 3.3376657,1.7388454 L 3.3495954,1.7233193 L 3.3628508,1.7090876 L 3.3761061,1.6948561 L 3.3893612,1.6819189 L 3.4026167,1.6676874 V 1.6676874 L 3.4171973,1.6547489 L 3.4304527,1.6418105 L 3.4450335,1.6288734 L 3.46094,1.615935 L 3.4755206,1.6042911 L 3.4914269,1.5926472 L 3.5073334,1.5810033 L 3.5232397,1.5706539 L 3.539146,1.5603031 L 3.5563779,1.5512469 L 3.5736096,1.5408961 L 3.5908416,1.53184 L 3.6080735,1.5240768 L 3.6253053,1.5163138 L 3.6438627,1.508552 L 3.6624201,1.5007891 L 3.6809774,1.4943205 L 3.6995351,1.4891451 L 3.7180922,1.4839697 L 3.7366497,1.4787944 L 3.7552071,1.4736191 L 3.7750901,1.4697381 L 3.7936476,1.4658573 L 3.8135304,1.4632696 L 3.8320877,1.460682 L 3.8519708,1.4593874 L 3.8718535,1.4580943 L 3.8917365,1.4567997 L 3.9102939,1.4555066 H 3.9301768 V 1.4555066 V 1.4555066 H 3.9500599 L 3.9686172,1.4567997 L 3.9885,1.4580943 L 4.008383,1.4593874 L 4.0269404,1.460682 L 4.0468233,1.4632696 L 4.0653807,1.4671505 L 4.0852635,1.4697381 L 4.1038212,1.4736191 L 4.1237039,1.4787944 L 4.1422613,1.4839697 L 4.1608187,1.4891451 L 4.1793762,1.4956137 L 4.1979335,1.5020822 L 4.2151654,1.508552 L 4.2337229,1.5163138 L 4.2509546,1.5240768 L 4.2681866,1.5331331 L 4.2854185,1.5421894 L 4.3026504,1.5512469 L 4.3198821,1.5615963 L 4.3357884,1.5719471 L 4.3516949,1.5822978 L 4.367601,1.5939417 L 4.3835075,1.6042911 L 4.3980883,1.6172294 L 4.4139947,1.6288734 L 4.4285756,1.6418105 L 4.4418307,1.6547489 L 4.4564116,1.6676874 V 1.6676874 L 4.4696669,1.6806245 L 4.4842476,1.6948561 L 4.4975029,1.7090876 L 4.5094327,1.7233193 L 4.5226881,1.7388454 L 4.5346177,1.7530769 L 4.5465475,1.7686017 L 4.5571519,1.7841279 L 4.5677561,1.8009471 L 4.5783602,1.8164719 L 4.5876389,1.8332912 L 4.5969175,1.8501104 L 4.6061964,1.8669297 L 4.6141496,1.883749 L 4.6221026,1.9018615 L 4.6300558,1.919974 L 4.6366836,1.9367932 L 4.6433111,1.954907 L 4.6486132,1.974314 L 4.6539153,1.9924265 L 4.6578918,2.0105389 L 4.663194,2.0299458 L 4.665845,2.0480597 L 4.6698216,2.0674666 L 4.6724727,2.0855791 L 4.6737982,2.1049861 L 4.6751239,2.1243931 L 4.6764493,2.1425055 L 4.6777749,2.1619124 V 2.1813194 V 2.1813194 V 2.2007251 L 4.6764493,2.220132 L 4.6751239,2.2382458 L 4.6737982,2.2576514 L 4.6724727,2.2770584 L 4.6698216,2.2964654 L 4.665845,2.3145792 L 4.663194,2.3339848 L 4.6578918,2.3520986 L 4.6539153,2.3715056 L 4.6486132,2.389618 L 4.6433111,2.4077305 L 4.6366836,2.4258443 L 4.6300558,2.4439567 L 4.6221026,2.4620692 L 4.6141496,2.480183 L 4.6061964,2.4970022 L 4.5969175,2.5138216 L 4.5876389,2.5306408 L 4.5783602,2.5474601 L 4.5677561,2.5642781 L 4.5571519,2.5798042 L 4.5452221,2.595329 L 4.5346177,2.610855 L 4.5226881,2.6263798 L 4.5094327,2.6406115 L 4.4975029,2.6561375 L 4.4842476,2.6703691 L 4.4696669,2.6833062 L 4.4564116,2.6975378 V 2.6975378 L 4.4418307,2.7104762 L 4.4285756,2.7234134 L 4.4139947,2.7363517 L 4.3980883,2.7492902 L 4.3835075,2.7609342 L 4.367601,2.7725781 L 4.3516949,2.7829275 L 4.3357884,2.7945714 L 4.3198821,2.8049221 L 4.3026504,2.8139782 L 4.2854185,2.824329 L 4.2681866,2.8333852 L 4.2509546,2.8411483 L 4.2337229,2.8502045 L 4.2151654,2.8566731 L 4.1979335,2.8644362 L 4.1793762,2.8709047 L 4.1608187,2.8773745 L 4.1422613,2.8825486 L 4.1237039,2.887724 L 4.1038212,2.8916062 L 4.0852635,2.8967803 L 4.0667063,2.8993679 L 4.0468233,2.9032501 L 4.0269404,2.9058378 L 4.008383,2.907131 L 3.9885,2.9084255 L 3.9686172,2.9097186 L 3.9500599,2.9110118 Z M 5.1721968,2.1813194 V 2.1813194 V 2.1813194 V 2.1619124 L 5.1735225,2.1437986 L 5.1748479,2.1243931 L 5.1761734,2.1049861 L 5.1774989,2.0868723 L 5.1801501,2.0674666 L 5.182801,2.0480597 L 5.1867777,2.0299458 L 5.1907543,2.0118335 L 5.1960562,1.9924265 L 5.2000328,1.974314 L 5.2066605,1.9562002 L 5.2119627,1.9380877 L 5.2185903,1.919974 L 5.2265434,1.9018615 L 5.2344966,1.8850422 L 5.24245,1.8682229 L 5.2504031,1.8501104 L 5.2596816,1.8332912 L 5.2689604,1.8177664 L 5.2795648,1.8009471 L 5.2901688,1.785421 L 5.3007732,1.7686017 L 5.3127028,1.7543702 L 5.3246326,1.7388454 L 5.3365622,1.7233193 L 5.3498177,1.7090876 L 5.363073,1.6948561 L 5.3763282,1.6806245 L 5.3895834,1.6676874 V 1.6676874 L 5.4028388,1.6547489 L 5.4174196,1.6418105 L 5.4320004,1.6288734 L 5.4465812,1.615935 L 5.4624875,1.6042911 L 5.4783939,1.5926472 L 5.4929745,1.5810033 L 5.5102066,1.5706539 L 5.5261129,1.5603031 L 5.5433447,1.5499524 L 5.5592509,1.5408961 L 5.5764829,1.53184 L 5.5950404,1.5240768 L 5.6122721,1.5163138 L 5.6295041,1.508552 L 5.6480614,1.5007891 L 5.6666189,1.4943205 L 5.6851762,1.4891451 L 5.7037336,1.4826753 L 5.7222912,1.4787944 L 5.7421739,1.4736191 L 5.7607315,1.4697381 L 5.7792888,1.4658573 L 5.7991716,1.4632696 L 5.8190546,1.460682 L 5.8376121,1.4593874 L 5.8574949,1.4580943 L 5.8773778,1.4567997 L 5.8959353,1.4555066 H 5.9158183 V 1.4555066 V 1.4555066 H 5.9357011 L 5.9555839,1.4567997 L 5.9741415,1.4580943 L 5.9940243,1.4593874 L 6.0139073,1.460682 L 6.0324647,1.4645627 L 6.0523476,1.4671505 L 6.070905,1.4710313 L 6.090788,1.4749135 L 6.1093452,1.4787944 L 6.1279026,1.4839697 L 6.1477856,1.4904383 L 6.1663431,1.4969082 L 6.1835748,1.5033767 L 6.2021323,1.5098453 L 6.2206897,1.5176084 L 6.2379216,1.52537 L 6.2551534,1.5344276 L 6.2723853,1.5434838 L 6.2896172,1.5525401 L 6.3068489,1.5628907 L 6.3227553,1.5732402 L 6.3386617,1.5835909 L 6.3545682,1.5952348 L 6.3704744,1.6068788 L 6.3863808,1.6185227 L 6.4009615,1.6301666 L 6.4155424,1.643105 L 6.4301232,1.6560421 L 6.4447039,1.6689806 V 1.6689806 V 1.6689806 L 6.4301232,1.6560421 L 6.4155424,1.643105 L 6.4009615,1.6301666 L 6.3863808,1.6185227 L 6.3704744,1.6068788 L 6.3545682,1.5952348 L 6.3386617,1.5835909 L 6.3227553,1.5732402 L 6.3068489,1.5628907 L 6.2896172,1.5525401 L 6.2723853,1.5434838 L 6.2551534,1.5344276 L 6.2379216,1.52537 L 6.2206897,1.5176084 L 6.2021323,1.5098453 L 6.1835748,1.5033767 L 6.1663431,1.4969082 L 6.1477856,1.4904383 L 6.1279026,1.4839697 L 6.1093452,1.4787944 L 6.090788,1.4749135 L 6.070905,1.4710313 L 6.0523476,1.4671505 L 6.0324647,1.4645627 L 6.0139073,1.460682 L 5.9940243,1.4593874 L 5.9741415,1.4580943 L 5.9555839,1.4567997 L 5.9357011,1.4555066 H 5.9158183 V 1.4555066 V 1.4555066 H 5.8959353 L 5.8773778,1.4567997 L 5.8574949,1.4580943 L 5.8376121,1.4593874 L 5.8190546,1.460682 L 5.7991716,1.4632696 L 5.7792888,1.4658573 L 5.7607315,1.4697381 L 5.7421739,1.4736191 L 5.7222912,1.4787944 L 5.7037336,1.4826753 L 5.6851762,1.4891451 L 5.6666189,1.4943205 L 5.6480614,1.5007891 L 5.6295041,1.508552 L 5.6122721,1.5163138 L 5.5950404,1.5240768 L 5.5764829,1.53184 L 5.5592509,1.5408961 L 5.5433447,1.5499524 L 5.5261129,1.5603031 L 5.5102066,1.5706539 L 5.4929745,1.5810033 L 5.4783939,1.5926472 L 5.4624875,1.6042911 L 5.4465812,1.615935 L 5.4320004,1.6288734 L 5.4174196,1.6418105 L 5.4028388,1.6547489 L 5.3895834,1.6676874 V 1.6676874 L 5.3763282,1.6806245 L 5.363073,1.6948561 L 5.3498177,1.7090876 L 5.3365622,1.7233193 L 5.3246326,1.7388454 L 5.3127028,1.7543702 L 5.3007732,1.7686017 L 5.2901688,1.785421 L 5.2795648,1.8009471 L 5.2689604,1.8177664 L 5.2596816,1.8332912 L 5.2504031,1.8501104 L 5.24245,1.8682229 L 5.2344966,1.8850422 L 5.2265434,1.9018615 L 5.2185903,1.919974 L 5.2119627,1.9380877 L 5.2066605,1.9562002 L 5.2000328,1.974314 L 5.1960562,1.9924265 L 5.1907543,2.0118335 L 5.1867777,2.0299458 L 5.182801,2.0480597 L 5.1801501,2.0674666 L 5.1774989,2.0868723 L 5.1761734,2.1049861 L 5.1748479,2.1243931 L 5.1735225,2.1437986 L 5.1721968,2.1619124 Z M 6.7389708,2.9110118 L 8.2301907,1.4555066 L 6.7389708,2.9110118 V 0 Z M 11.400854,1.6676874 V 1.6676874 L 11.414111,1.6806245 L 11.428691,1.6948561 L 11.440618,1.7090876 L 11.453875,1.7233193 L 11.465804,1.7388454 L 11.477734,1.7530769 L 11.489664,1.7686017 L 11.501593,1.7841279 L 11.512196,1.8009471 L 11.521478,1.8164719 L 11.532081,1.8332912 L 11.54136,1.8501104 L 11.549312,1.8669297 L 11.558592,1.8850422 L 11.566545,1.9018615 L 11.573173,1.919974 L 11.579801,1.9380877 L 11.586426,1.9562002 L 11.59173,1.974314 L 11.597032,1.9924265 L 11.602336,2.0105389 L 11.606311,2.0299458 L 11.608962,2.0480597 L 11.61294,2.0674666 L 11.61559,2.0855791 L 11.616915,2.1049861 L 11.618241,2.1243931 L 11.619566,2.1437986 L 11.620891,2.1619124 V 2.1813194 V 2.1813194 V 2.2007251 L 11.619566,2.220132 L 11.618241,2.2382458 L 11.616915,2.2576514 L 11.61559,2.2770584 L 11.61294,2.2964654 L 11.608962,2.3145792 L 11.606311,2.3339848 L 11.602336,2.3520986 L 11.597032,2.3715056 L 11.59173,2.389618 L 11.586426,2.4077305 L 11.579801,2.4258443 L 11.573173,2.4439567 L 11.56522,2.4620692 L 11.558592,2.4788885 L 11.549312,2.4970022 L 11.54136,2.5138216 L 11.532081,2.5306408 L 11.521478,2.5474601 L 11.512196,2.5642781 L 11.500268,2.5798042 L 11.489664,2.595329 L 11.477734,2.610855 L 11.465804,2.6263798 L 11.453875,2.6406115 L 11.440618,2.6561375 L 11.428691,2.6703691 L 11.414111,2.6833062 L 11.400854,2.6975378 V 2.6975378 L 11.386274,2.7104762 L 11.373018,2.7234134 L 11.357112,2.7363517 L 11.34253,2.7492902 L 11.32795,2.7609342 L 11.312044,2.7725781 L 11.296137,2.7829275 L 11.280231,2.7945714 L 11.262999,2.8049221 L 11.247092,2.8139782 L 11.229861,2.824329 L 11.21263,2.8333852 L 11.195397,2.8411483 L 11.176839,2.8502045 L 11.159608,2.8566731 L 11.14105,2.8644362 L 11.122493,2.8709047 L 11.103936,2.8773745 L 11.085379,2.8825486 L 11.066822,2.887724 L 11.048263,2.8916062 L 11.028382,2.8967803 L 11.009824,2.8993679 L 10.989941,2.9032501 L 10.971383,2.9058378 L 10.9515,2.907131 L 10.931616,2.9084255 L 10.913061,2.9097186 L 10.893176,2.9110118 H 10.873293 V 2.9110118 V 2.9110118 H 10.85341 L 10.834854,2.9097186 L 10.814968,2.9084255 L 10.795089,2.907131 L 10.775206,2.9058378 L 10.756648,2.9032501 L 10.736765,2.8993679 L 10.718208,2.8967803 L 10.698325,2.8928993 L 10.679767,2.887724 L 10.661209,2.8825486 L 10.642652,2.8773745 L 10.624095,2.8709047 L 10.605537,2.8644362 L 10.586979,2.8579676 L 10.569747,2.8502045 L 10.55119,2.8424416 L 10.533959,2.8333852 L 10.516726,2.824329 L 10.499494,2.8152729 L 10.483587,2.8049221 L 10.466357,2.7945714 L 10.450452,2.7842219 L 10.434544,2.7725781 L 10.419962,2.7609342 L 10.404057,2.7492902 L 10.389477,2.7363517 L 10.374897,2.7234134 L 10.360313,2.7104762 L 10.347058,2.6975378 V 2.6975378 L 10.333803,2.6833062 L 10.320549,2.6703691 L 10.307294,2.654843 L 10.294037,2.6406115 L 10.282109,2.6263798 L 10.270179,2.610855 L 10.259574,2.595329 L 10.247645,2.5798042 L 10.23704,2.5629849 L 10.227762,2.5474601 L 10.217156,2.5306408 L 10.207878,2.5138216 L 10.199924,2.4957078 L 10.191971,2.4788885 L 10.184018,2.460776 L 10.176067,2.4439567 L 10.169439,2.4258443 L 10.164137,2.4077305 L 10.158835,2.389618 L 10.153533,2.3702111 L 10.148231,2.3520986 L 10.144255,2.3326917 L 10.141603,2.3145792 L 10.137626,2.2951722 L 10.134975,2.2770584 L 10.13365,2.2576514 L 10.132324,2.2382458 L 10.130998,2.220132 L 10.129673,2.2007251 V 2.1813194 V 2.1813194 V 2.1619124 L 10.130998,2.1437986 L 10.132324,2.1243931 L 10.13365,2.1049861 L 10.134975,2.0868723 L 10.137626,2.0674666 L 10.140276,2.0480597 L 10.144255,2.0299458 L 10.148231,2.0118335 L 10.153533,1.9924265 L 10.15751,1.974314 L 10.164137,1.9562002 L 10.169439,1.9380877 L 10.176067,1.919974 L 10.184018,1.9018615 L 10.191971,1.8850422 L 10.199924,1.8682229 L 10.207878,1.8501104 L 10.217156,1.8332912 L 10.226437,1.8177664 L 10.23704,1.8009471 L 10.247645,1.785421 L 10.258248,1.7686017 L 10.270179,1.7543702 L 10.282109,1.7388454 L 10.294037,1.7233193 L 10.307294,1.7090876 L 10.320549,1.6948561 L 10.333803,1.6806245 L 10.347058,1.6676874 V 1.6676874 L 10.360313,1.6547489 L 10.374897,1.6418105 L 10.389477,1.6288734 L 10.404057,1.615935 L 10.419962,1.6042911 L 10.435869,1.5926472 L 10.450452,1.5810033 L 10.467685,1.5706539 L 10.483587,1.5603031 L 10.500819,1.5499524 L 10.516726,1.5408961 L 10.533959,1.53184 L 10.552517,1.5240768 L 10.569747,1.5163138 L 10.586979,1.508552 L 10.605537,1.5007891 L 10.624095,1.4943205 L 10.642652,1.4891451 L 10.661209,1.4826753 L 10.679767,1.4787944 L 10.69965,1.4736191 L 10.718208,1.4697381 L 10.736765,1.4658573 L 10.756648,1.4632696 L 10.776531,1.460682 L 10.795089,1.4593874 L 10.814968,1.4580943 L 10.834854,1.4567997 L 10.85341,1.4555066 H 10.873293 V 1.4555066 V 1.4555066 H 10.893176 L 10.911736,1.4567997 L 10.931616,1.4580943 L 10.9515,1.4593874 L 10.971383,1.460682 L 10.989941,1.4632696 L 11.009824,1.4671505 L 11.028382,1.4697381 L 11.048263,1.4736191 L 11.066822,1.4787944 L 11.085379,1.4839697 L 11.103936,1.4891451 L 11.122493,1.4956137 L 11.14105,1.5020822 L 11.159608,1.508552 L 11.176839,1.5163138 L 11.195397,1.5240768 L 11.21263,1.5331331 L 11.229861,1.5421894 L 11.247092,1.5512469 L 11.262999,1.5615963 L 11.280231,1.5719471 L 11.296137,1.5822978 L 11.312044,1.5939417 L 11.32795,1.6042911 L 11.34253,1.6172294 L 11.357112,1.6288734 L 11.373018,1.6418105 L 11.386274,1.6547489 Z M 11.400854,2.6975378 V 2.6975378 L 11.414111,2.6833062 L 11.428691,2.6703691 L 11.440618,2.6561375 L 11.453875,2.6406115 L 11.465804,2.6263798 L 11.477734,2.610855 L 11.489664,2.595329 L 11.500268,2.5798042 L 11.512196,2.5642781 L 11.521478,2.5474601 L 11.532081,2.5306408 L 11.54136,2.5138216 L 11.549312,2.4970022 L 11.558592,2.4788885 L 11.56522,2.4620692 L 11.573173,2.4439567 L 11.579801,2.4258443 L 11.586426,2.4077305 L 11.59173,2.389618 L 11.597032,2.3715056 L 11.602336,2.3520986 L 11.606311,2.3339848 L 11.608962,2.3145792 L 11.61294,2.2964654 L 11.61559,2.2770584 L 11.616915,2.2576514 L 11.618241,2.2382458 L 11.619566,2.220132 L 11.620891,2.2007251 V 2.1813194 V 2.1813194 V 2.1619124 L 11.619566,2.1437986 L 11.618241,2.1243931 L 11.616915,2.1049861 L 11.61559,2.0855791 L 11.61294,2.0674666 L 11.608962,2.0480597 L 11.606311,2.0299458 L 11.602336,2.0105389 L 11.597032,1.9924265 L 11.59173,1.974314 L 11.586426,1.9562002 L 11.579801,1.9380877 L 11.573173,1.919974 L 11.566545,1.9018615 L 11.558592,1.8850422 L 11.549312,1.8669297 L 11.54136,1.8501104 L 11.532081,1.8332912 L 11.521478,1.8164719 L 11.512196,1.8009471 L 11.501593,1.7841279 L 11.489664,1.7686017 L 11.477734,1.7530769 L 11.465804,1.7388454 L 11.453875,1.7233193 L 11.440618,1.7090876 L 11.428691,1.6948561 L 11.414111,1.6806245 L 11.400854,1.6676874 V 1.6676874 L 11.386274,1.6547489 L 11.373018,1.6418105 L 11.357112,1.6288734 L 11.34253,1.6172294 L 11.32795,1.6042911 L 11.312044,1.5939417 L 11.296137,1.5822978 L 11.280231,1.5719471 L 11.262999,1.5615963 L 11.247092,1.5512469 L 11.229861,1.5421894 L 11.21263,1.5331331 L 11.195397,1.5240768 L 11.176839,1.5163138 L 11.159608,1.508552 L 11.14105,1.5020822 L 11.122493,1.4956137 L 11.103936,1.4891451 L 11.085379,1.4839697 L 11.066822,1.4787944 L 11.048263,1.4736191 L 11.028382,1.4697381 L 11.009824,1.4671505 L 10.989941,1.4632696 L 10.971383,1.460682 L 10.9515,1.4593874 L 10.931616,1.4580943 L 10.911736,1.4567997 L 10.893176,1.4555066 H 10.873293 V 1.4555066 V 1.4555066 H 10.85341 L 10.834854,1.4567997 L 10.814968,1.4580943 L 10.795089,1.4593874 L 10.776531,1.460682 L 10.756648,1.4632696 L 10.736765,1.4658573 L 10.718208,1.4697381 L 10.69965,1.4736191 L 10.679767,1.4787944 L 10.661209,1.4826753 L 10.642652,1.4891451 L 10.624095,1.4943205 L 10.605537,1.5007891 L 10.586979,1.508552 L 10.569747,1.5163138 L 10.552517,1.5240768 L 10.533959,1.53184 L 10.516726,1.5408961 L 10.500819,1.5499524 L 10.483587,1.5603031 L 10.467685,1.5706539 L 10.450452,1.5810033 L 10.435869,1.5926472 L 10.419962,1.6042911 L 10.404057,1.615935 L 10.389477,1.6288734 L 10.374897,1.6418105 L 10.360313,1.6547489 L 10.347058,1.6676874 V 1.6676874 L 10.333803,1.6806245 L 10.320549,1.6948561 L 10.307294,1.7090876 L 10.294037,1.7233193 L 10.282109,1.7388454 L 10.270179,1.7543702 L 10.258248,1.7686017 L 10.247645,1.785421 L 10.23704,1.8009471 L 10.226437,1.8177664 L 10.217156,1.8332912 L 10.207878,1.8501104 L 10.199924,1.8682229 L 10.191971,1.8850422 L 10.184018,1.9018615 L 10.176067,1.919974 L 10.169439,1.9380877 L 10.164137,1.9562002 L 10.15751,1.974314 L 10.153533,1.9924265 L 10.148231,2.0118335 L 10.144255,2.0299458 L 10.140276,2.0480597 L 10.137626,2.0674666 L 10.134975,2.0868723 L 10.13365,2.1049861 L 10.132324,2.1243931 L 10.130998,2.1437986 L 10.129673,2.1619124 V 2.1813194 V 2.1813194 V 2.2007251 L 10.130998,2.220132 L 10.132324,2.2382458 L 10.13365,2.2576514 L 10.134975,2.2770584 L 10.137626,2.2951722 L 10.141603,2.3145792 L 10.144255,2.3326917 L 10.148231,2.3520986 L 10.153533,2.3702111 L 10.158835,2.389618 L 10.164137,2.4077305 L 10.169439,2.4258443 L 10.176067,2.4439567 L 10.184018,2.460776 L 10.191971,2.4788885 L 10.199924,2.4957078 L 10.207878,2.5138216 L 10.217156,2.5306408 L 10.227762,2.5474601 L 10.23704,2.5629849 L 10.247645,2.5798042 L 10.259574,2.595329 L 10.270179,2.610855 L 10.282109,2.6263798 L 10.294037,2.6406115 L 10.307294,2.654843 L 10.320549,2.6703691 L 10.333803,2.6833062 L 10.347058,2.6975378 V 2.6975378 L 10.360313,2.7104762 L 10.374897,2.7234134 L 10.389477,2.7363517 L 10.404057,2.7492902 L 10.419962,2.7609342 L 10.434544,2.7725781 L 10.450452,2.7842219 L 10.466357,2.7945714 L 10.483587,2.8049221 L 10.499494,2.8152729 L 10.516726,2.824329 L 10.533959,2.8333852 L 10.55119,2.8424416 L 10.569747,2.8502045 L 10.586979,2.8579676 L 10.605537,2.8644362 L 10.624095,2.8709047 L 10.642652,2.8773745 L 10.661209,2.8825486 L 10.679767,2.887724 L 10.698325,2.8928993 L 10.718208,2.8967803 L 10.736765,2.8993679 L 10.756648,2.9032501 L 10.775206,2.9058378 L 10.795089,2.907131 L 10.814968,2.9084255 L 10.834854,2.9097186 L 10.85341,2.9110118 H 10.873293 V 2.9110118 V 2.9110118 H 10.893176 L 10.913061,2.9097186 L 10.931616,2.9084255 L 10.9515,2.907131 L 10.971383,2.9058378 L 10.989941,2.9032501 L 11.009824,2.8993679 L 11.028382,2.8967803 L 11.048263,2.8916062 L 11.066822,2.887724 L 11.085379,2.8825486 L 11.103936,2.8773745 L 11.122493,2.8709047 L 11.14105,2.8644362 L 11.159608,2.8566731 L 11.176839,2.8502045 L 11.195397,2.8411483 L 11.21263,2.8333852 L 11.229861,2.824329 L 11.247092,2.8139782 L 11.262999,2.8049221 L 11.280231,2.7945714 L 11.296137,2.7829275 L 11.312044,2.7725781 L 11.32795,2.7609342 L 11.34253,2.7492902 L 11.357112,2.7363517 L 11.373018,2.7234134 L 11.386274,2.7104762 Z M 12.037108,2.1813194 V 2.1813194 V 2.1813194 V 2.1619124 L 12.038433,2.1437986 V 2.1243931 L 12.041083,2.1049861 L 12.04241,2.0868723 L 12.045061,2.0674666 L 12.047712,2.0493529 L 12.051689,2.0299458 L 12.055667,2.0118335 L 12.059642,1.9924265 L 12.064943,1.974314 L 12.070247,1.9562002 L 12.076872,1.9380877 L 12.083501,1.919974 L 12.090129,1.903156 L 12.098081,1.8850422 L 12.106034,1.8682229 L 12.115312,1.8514036 L 12.12459,1.8345843 L 12.13387,1.8177664 L 12.144475,1.8009471 L 12.153753,1.785421 L 12.165684,1.7698962 L 12.176288,1.7543702 L 12.188217,1.7388454 L 12.200146,1.7233193 L 12.213403,1.7090876 L 12.226658,1.6948561 L 12.239913,1.6819189 L 12.253168,1.6676874 V 1.6676874 L 12.26775,1.6547489 L 12.281005,1.6418105 L 12.295585,1.6288734 L 12.311491,1.615935 L 12.326074,1.6042911 L 12.341979,1.5926472 L 12.357885,1.5810033 L 12.373793,1.5706539 L 12.389696,1.5603031 L 12.406929,1.5512469 L 12.42416,1.5408961 L 12.441395,1.53184 L 12.458625,1.5240768 L 12.475859,1.5163138 L 12.494414,1.508552 L 12.512974,1.5007891 L 12.53153,1.4943205 L 12.550086,1.4891451 L 12.568644,1.4839697 L 12.587202,1.4787944 L 12.605759,1.4736191 L 12.625643,1.4697381 L 12.644198,1.4658573 L 12.664085,1.4632696 L 12.68264,1.460682 L 12.702524,1.4593874 L 12.722405,1.4580943 L 12.742289,1.4567997 L 12.760846,1.4555066 H 12.780729 V 1.4555066 V 1.4555066 H 12.800611 L 12.820495,1.4567997 L 12.839053,1.4580943 L 12.858934,1.4593874 L 12.878817,1.460682 L 12.897376,1.4645627 L 12.917257,1.4671505 L 12.935815,1.4710313 L 12.9557,1.4749135 L 12.974257,1.4787944 L 12.992814,1.4839697 L 13.012698,1.4904383 L 13.031253,1.4969082 L 13.048485,1.5033767 L 13.067042,1.5098453 L 13.085599,1.5176084 L 13.102831,1.52537 L 13.120063,1.5344276 L 13.137296,1.5434838 L 13.154528,1.5525401 L 13.171758,1.5628907 L 13.187666,1.5732402 L 13.203574,1.5835909 L 13.21948,1.5952348 L 13.235385,1.6068788 L 13.251292,1.6185227 L 13.265871,1.6301666 L 13.280455,1.643105 L 13.295036,1.6560421 L 13.309615,1.6689806 V 1.6689806 V 1.6689806 L 13.295036,1.6560421 L 13.280455,1.643105 L 13.265871,1.6301666 L 13.251292,1.6185227 L 13.235385,1.6068788 L 13.21948,1.5952348 L 13.203574,1.5835909 L 13.187666,1.5732402 L 13.171758,1.5628907 L 13.154528,1.5525401 L 13.137296,1.5434838 L 13.120063,1.5344276 L 13.102831,1.52537 L 13.085599,1.5176084 L 13.067042,1.5098453 L 13.048485,1.5033767 L 13.031253,1.4969082 L 13.012698,1.4904383 L 12.992814,1.4839697 L 12.974257,1.4787944 L 12.9557,1.4749135 L 12.935815,1.4710313 L 12.917257,1.4671505 L 12.897376,1.4645627 L 12.878817,1.460682 L 12.858934,1.4593874 L 12.839053,1.4580943 L 12.820495,1.4567997 L 12.800611,1.4555066 H 12.780729 V 1.4555066 V 1.4555066 H 12.760846 L 12.742289,1.4567997 L 12.722405,1.4580943 L 12.702524,1.4593874 L 12.68264,1.460682 L 12.664085,1.4632696 L 12.644198,1.4658573 L 12.625643,1.4697381 L 12.605759,1.4736191 L 12.587202,1.4787944 L 12.568644,1.4839697 L 12.550086,1.4891451 L 12.53153,1.4943205 L 12.512974,1.5007891 L 12.494414,1.508552 L 12.475859,1.5163138 L 12.458625,1.5240768 L 12.441395,1.53184 L 12.42416,1.5408961 L 12.406929,1.5512469 L 12.389696,1.5603031 L 12.373793,1.5706539 L 12.357885,1.5810033 L 12.341979,1.5926472 L 12.326074,1.6042911 L 12.311491,1.615935 L 12.295585,1.6288734 L 12.281005,1.6418105 L 12.26775,1.6547489 L 12.253168,1.6676874 V 1.6676874 L 12.239913,1.6819189 L 12.226658,1.6948561 L 12.213403,1.7090876 L 12.200146,1.7233193 L 12.188217,1.7388454 L 12.176288,1.7543702 L 12.165684,1.7698962 L 12.153753,1.785421 L 12.144475,1.8009471 L 12.13387,1.8177664 L 12.12459,1.8345843 L 12.115312,1.8514036 L 12.106034,1.8682229 L 12.098081,1.8850422 L 12.090129,1.903156 L 12.083501,1.919974 L 12.076872,1.9380877 L 12.070247,1.9562002 L 12.064943,1.974314 L 12.059642,1.9924265 L 12.055667,2.0118335 L 12.051689,2.0299458 L 12.047712,2.0493529 L 12.045061,2.0674666 L 12.04241,2.0868723 L 12.041083,2.1049861 L 12.038433,2.1243931 V 2.1437986 L 12.037108,2.1619124 Z M 16.912399,1.6676874 V 1.6676874 L 16.925656,1.6806245 L 16.940237,1.6948561 L 16.952166,1.7090876 L 16.965421,1.7233193 L 16.977351,1.7388454 L 16.98928,1.7530769 L 17.00121,1.7686017 L 17.013141,1.7841279 L 17.023744,1.8009471 L 17.033023,1.8164719 L 17.043628,1.8332912 L 17.052907,1.8501104 L 17.060858,1.8669297 L 17.070138,1.8850422 L 17.078092,1.9018615 L 17.084719,1.919974 L 17.091347,1.9380877 L 17.097975,1.9562002 L 17.103277,1.974314 L 17.108579,1.9924265 L 17.113882,2.0105389 L 17.117857,2.0299458 L 17.120508,2.0480597 L 17.124486,2.0674666 L 17.127136,2.0855791 L 17.128461,2.1049861 L 17.129786,2.1243931 L 17.131113,2.1437986 L 17.132439,2.1619124 V 2.1813194 V 2.1813194 V 2.2007251 L 17.131113,2.220132 L 17.129786,2.2382458 L 17.128461,2.2576514 L 17.127136,2.2770584 L 17.124486,2.2964654 L 17.120508,2.3145792 L 17.117857,2.3339848 L 17.113882,2.3520986 L 17.108579,2.3715056 L 17.103277,2.389618 L 17.097975,2.4077305 L 17.091347,2.4258443 L 17.084719,2.4439567 L 17.076767,2.4620692 L 17.070138,2.4788885 L 17.060858,2.4970022 L 17.052907,2.5138216 L 17.043628,2.5306408 L 17.033023,2.5474601 L 17.023744,2.5642781 L 17.011815,2.5798042 L 17.00121,2.595329 L 16.98928,2.610855 L 16.977351,2.6263798 L 16.965421,2.6406115 L 16.952166,2.6561375 L 16.940237,2.6703691 L 16.925656,2.6833062 L 16.912399,2.6975378 V 2.6975378 L 16.897819,2.7104762 L 16.884563,2.7234134 L 16.868659,2.7363517 L 16.854076,2.7492902 L 16.839495,2.7609342 L 16.823591,2.7725781 L 16.807684,2.7829275 L 16.791778,2.7945714 L 16.774546,2.8049221 L 16.758639,2.8139782 L 16.741407,2.824329 L 16.724176,2.8333852 L 16.706944,2.8411483 L 16.688386,2.8502045 L 16.671155,2.8566731 L 16.652597,2.8644362 L 16.63404,2.8709047 L 16.615481,2.8773745 L 16.596925,2.8825486 L 16.578367,2.887724 L 16.55981,2.8916062 L 16.539927,2.8967803 L 16.521369,2.8993679 L 16.501488,2.9032501 L 16.48293,2.9058378 L 16.463047,2.907131 L 16.443163,2.9084255 L 16.423281,2.9097186 L 16.404722,2.9110118 H 16.384839 V 2.9110118 V 2.9110118 H 16.364957 L 16.346399,2.9097186 L 16.326516,2.9084255 L 16.306634,2.907131 L 16.286751,2.9058378 L 16.268193,2.9032501 L 16.24831,2.8993679 L 16.229753,2.8967803 L 16.209869,2.8928993 L 16.191314,2.887724 L 16.172756,2.8825486 L 16.154199,2.8773745 L 16.135642,2.8709047 L 16.117084,2.8644362 L 16.098527,2.8579676 L 16.081293,2.8502045 L 16.062737,2.8424416 L 16.045504,2.8333852 L 16.028275,2.824329 L 16.011041,2.8152729 L 15.995134,2.8049221 L 15.977903,2.7945714 L 15.961995,2.7842219 L 15.946091,2.7725781 L 15.931509,2.7609342 L 15.915603,2.7492902 L 15.901022,2.7363517 L 15.886441,2.7234134 L 15.871863,2.7104762 L 15.858605,2.6975378 V 2.6975378 L 15.84535,2.6833062 L 15.832096,2.6703691 L 15.818839,2.654843 L 15.805585,2.6406115 L 15.793656,2.6263798 L 15.781724,2.610855 L 15.77112,2.595329 L 15.759191,2.5798042 L 15.748586,2.5629849 L 15.739308,2.5474601 L 15.728704,2.5306408 L 15.719425,2.5138216 L 15.711471,2.4957078 L 15.703518,2.4788885 L 15.695564,2.460776 L 15.687612,2.4439567 L 15.680984,2.4258443 L 15.675682,2.4077305 L 15.67038,2.389618 L 15.665079,2.3702111 L 15.659775,2.3520986 L 15.655799,2.3326917 L 15.651824,2.3145792 L 15.649171,2.2951722 L 15.646521,2.2770584 L 15.645195,2.2576514 L 15.64387,2.2382458 L 15.642544,2.220132 L 15.641218,2.2007251 V 2.1813194 V 2.1813194 V 2.1619124 L 15.642544,2.1437986 L 15.64387,2.1243931 L 15.645195,2.1049861 L 15.646521,2.0868723 L 15.649171,2.0674666 L 15.651824,2.0480597 L 15.655799,2.0299458 L 15.659775,2.0118335 L 15.665079,1.9924265 L 15.669054,1.974314 L 15.675682,1.9562002 L 15.680984,1.9380877 L 15.687612,1.919974 L 15.695564,1.9018615 L 15.703518,1.8850422 L 15.711471,1.8682229 L 15.719425,1.8501104 L 15.728704,1.8332912 L 15.737983,1.8177664 L 15.748586,1.8009471 L 15.759191,1.785421 L 15.769795,1.7686017 L 15.781724,1.7543702 L 15.793656,1.7388454 L 15.805585,1.7233193 L 15.818839,1.7090876 L 15.832096,1.6948561 L 15.84535,1.6806245 L 15.858605,1.6676874 V 1.6676874 L 15.871863,1.6547489 L 15.886441,1.6418105 L 15.901022,1.6288734 L 15.915603,1.615935 L 15.931509,1.6042911 L 15.947416,1.5926472 L 15.961995,1.5810033 L 15.979228,1.5706539 L 15.995134,1.5603031 L 16.012367,1.5499524 L 16.028275,1.5408961 L 16.045504,1.53184 L 16.064062,1.5240768 L 16.081293,1.5163138 L 16.098527,1.508552 L 16.117084,1.5007891 L 16.135642,1.4943205 L 16.154199,1.4891451 L 16.172756,1.4826753 L 16.191314,1.4787944 L 16.211196,1.4736191 L 16.229753,1.4697381 L 16.24831,1.4658573 L 16.268193,1.4632696 L 16.288076,1.460682 L 16.306634,1.4593874 L 16.326516,1.4580943 L 16.346399,1.4567997 L 16.364957,1.4555066 H 16.384839 V 1.4555066 V 1.4555066 H 16.404722 L 16.423281,1.4567997 L 16.443163,1.4580943 L 16.463047,1.4593874 L 16.48293,1.460682 L 16.501488,1.4632696 L 16.521369,1.4671505 L 16.539927,1.4697381 L 16.55981,1.4736191 L 16.578367,1.4787944 L 16.596925,1.4839697 L 16.615481,1.4891451 L 16.63404,1.4956137 L 16.652597,1.5020822 L 16.671155,1.508552 L 16.688386,1.5163138 L 16.706944,1.5240768 L 16.724176,1.5331331 L 16.741407,1.5421894 L 16.758639,1.5512469 L 16.774546,1.5615963 L 16.791778,1.5719471 L 16.807684,1.5822978 L 16.823591,1.5939417 L 16.839495,1.6042911 L 16.854076,1.6172294 L 16.868659,1.6288734 L 16.884563,1.6418105 L 16.897819,1.6547489 Z M 16.912399,2.6975378 V 2.6975378 L 16.925656,2.6833062 L 16.940237,2.6703691 L 16.952166,2.6561375 L 16.965421,2.6406115 L 16.977351,2.6263798 L 16.98928,2.610855 L 17.00121,2.595329 L 17.011815,2.5798042 L 17.023744,2.5642781 L 17.033023,2.5474601 L 17.043628,2.5306408 L 17.052907,2.5138216 L 17.060858,2.4970022 L 17.070138,2.4788885 L 17.076767,2.4620692 L 17.084719,2.4439567 L 17.091347,2.4258443 L 17.097975,2.4077305 L 17.103277,2.389618 L 17.108579,2.3715056 L 17.113882,2.3520986 L 17.117857,2.3339848 L 17.120508,2.3145792 L 17.124486,2.2964654 L 17.127136,2.2770584 L 17.128461,2.2576514 L 17.129786,2.2382458 L 17.131113,2.220132 L 17.132439,2.2007251 V 2.1813194 V 2.1813194 V 2.1619124 L 17.131113,2.1437986 L 17.129786,2.1243931 L 17.128461,2.1049861 L 17.127136,2.0855791 L 17.124486,2.0674666 L 17.120508,2.0480597 L 17.117857,2.0299458 L 17.113882,2.0105389 L 17.108579,1.9924265 L 17.103277,1.974314 L 17.097975,1.9562002 L 17.091347,1.9380877 L 17.084719,1.919974 L 17.078092,1.9018615 L 17.070138,1.8850422 L 17.060858,1.8669297 L 17.052907,1.8501104 L 17.043628,1.8332912 L 17.033023,1.8164719 L 17.023744,1.8009471 L 17.013141,1.7841279 L 17.00121,1.7686017 L 16.98928,1.7530769 L 16.977351,1.7388454 L 16.965421,1.7233193 L 16.952166,1.7090876 L 16.940237,1.6948561 L 16.925656,1.6806245 L 16.912399,1.6676874 V 1.6676874 L 16.897819,1.6547489 L 16.884563,1.6418105 L 16.868659,1.6288734 L 16.854076,1.6172294 L 16.839495,1.6042911 L 16.823591,1.5939417 L 16.807684,1.5822978 L 16.791778,1.5719471 L 16.774546,1.5615963 L 16.758639,1.5512469 L 16.741407,1.5421894 L 16.724176,1.5331331 L 16.706944,1.5240768 L 16.688386,1.5163138 L 16.671155,1.508552 L 16.652597,1.5020822 L 16.63404,1.4956137 L 16.615481,1.4891451 L 16.596925,1.4839697 L 16.578367,1.4787944 L 16.55981,1.4736191 L 16.539927,1.4697381 L 16.521369,1.4671505 L 16.501488,1.4632696 L 16.48293,1.460682 L 16.463047,1.4593874 L 16.443163,1.4580943 L 16.423281,1.4567997 L 16.404722,1.4555066 H 16.384839 V 1.4555066 V 1.4555066 H 16.364957 L 16.346399,1.4567997 L 16.326516,1.4580943 L 16.306634,1.4593874 L 16.288076,1.460682 L 16.268193,1.4632696 L 16.24831,1.4658573 L 16.229753,1.4697381 L 16.211196,1.4736191 L 16.191314,1.4787944 L 16.172756,1.4826753 L 16.154199,1.4891451 L 16.135642,1.4943205 L 16.117084,1.5007891 L 16.098527,1.508552 L 16.081293,1.5163138 L 16.064062,1.5240768 L 16.045504,1.53184 L 16.028275,1.5408961 L 16.012367,1.5499524 L 15.995134,1.5603031 L 15.979228,1.5706539 L 15.961995,1.5810033 L 15.947416,1.5926472 L 15.931509,1.6042911 L 15.915603,1.615935 L 15.901022,1.6288734 L 15.886441,1.6418105 L 15.871863,1.6547489 L 15.858605,1.6676874 V 1.6676874 L 15.84535,1.6806245 L 15.832096,1.6948561 L 15.818839,1.7090876 L 15.805585,1.7233193 L 15.793656,1.7388454 L 15.781724,1.7543702 L 15.769795,1.7686017 L 15.759191,1.785421 L 15.748586,1.8009471 L 15.737983,1.8177664 L 15.728704,1.8332912 L 15.719425,1.8501104 L 15.711471,1.8682229 L 15.703518,1.8850422 L 15.695564,1.9018615 L 15.687612,1.919974 L 15.680984,1.9380877 L 15.675682,1.9562002 L 15.669054,1.974314 L 15.665079,1.9924265 L 15.659775,2.0118335 L 15.655799,2.0299458 L 15.651824,2.0480597 L 15.649171,2.0674666 L 15.646521,2.0868723 L 15.645195,2.1049861 L 15.64387,2.1243931 L 15.642544,2.1437986 L 15.641218,2.1619124 V 2.1813194 V 2.1813194 V 2.2007251 L 15.642544,2.220132 L 15.64387,2.2382458 L 15.645195,2.2576514 L 15.646521,2.2770584 L 15.649171,2.2951722 L 15.651824,2.3145792 L 15.655799,2.3326917 L 15.659775,2.3520986 L 15.665079,2.3702111 L 15.67038,2.389618 L 15.675682,2.4077305 L 15.680984,2.4258443 L 15.687612,2.4439567 L 15.695564,2.460776 L 15.703518,2.4788885 L 15.711471,2.4957078 L 15.719425,2.5138216 L 15.728704,2.5306408 L 15.739308,2.5474601 L 15.748586,2.5629849 L 15.759191,2.5798042 L 15.77112,2.595329 L 15.781724,2.610855 L 15.793656,2.6263798 L 15.805585,2.6406115 L 15.818839,2.654843 L 15.832096,2.6703691 L 15.84535,2.6833062 L 15.858605,2.6975378 V 2.6975378 L 15.871863,2.7104762 L 15.886441,2.7234134 L 15.901022,2.7363517 L 15.915603,2.7492902 L 15.931509,2.7609342 L 15.946091,2.7725781 L 15.961995,2.7842219 L 15.977903,2.7945714 L 15.995134,2.8049221 L 16.011041,2.8152729 L 16.028275,2.824329 L 16.045504,2.8333852 L 16.062737,2.8424416 L 16.081293,2.8502045 L 16.098527,2.8579676 L 16.117084,2.8644362 L 16.135642,2.8709047 L 16.154199,2.8773745 L 16.172756,2.8825486 L 16.191314,2.887724 L 16.209869,2.8928993 L 16.229753,2.8967803 L 16.24831,2.8993679 L 16.268193,2.9032501 L 16.286751,2.9058378 L 16.306634,2.907131 L 16.326516,2.9084255 L 16.346399,2.9097186 L 16.364957,2.9110118 H 16.384839 V 2.9110118 V 2.9110118 H 16.404722 L 16.423281,2.9097186 L 16.443163,2.9084255 L 16.463047,2.907131 L 16.48293,2.9058378 L 16.501488,2.9032501 L 16.521369,2.8993679 L 16.539927,2.8967803 L 16.55981,2.8916062 L 16.578367,2.887724 L 16.596925,2.8825486 L 16.615481,2.8773745 L 16.63404,2.8709047 L 16.652597,2.8644362 L 16.671155,2.8566731 L 16.688386,2.8502045 L 16.706944,2.8411483 L 16.724176,2.8333852 L 16.741407,2.824329 L 16.758639,2.8139782 L 16.774546,2.8049221 L 16.791778,2.7945714 L 16.807684,2.7829275 L 16.823591,2.7725781 L 16.839495,2.7609342 L 16.854076,2.7492902 L 16.868659,2.7363517 L 16.884563,2.7234134 L 16.897819,2.7104762 Z M 1.9193506,2.8799623 L 1.1757291,1.4244557 L 1.9193506,2.8799623 L 2.6669483,1.4244557 Z M 3.9301768,2.9110118 V 2.9110118 V 2.9110118 H 3.9500599 L 3.9686172,2.9097186 L 3.9885,2.9084255 L 4.008383,2.907131 L 4.0269404,2.9058378 L 4.0468233,2.9032501 L 4.0667063,2.8993679 L 4.0852635,2.8967803 L 4.1038212,2.8916062 L 4.1237039,2.887724 L 4.1422613,2.8825486 L 4.1608187,2.8773745 L 4.1793762,2.8709047 L 4.1979335,2.8644362 L 4.2151654,2.8566731 L 4.2337229,2.8502045 L 4.2509546,2.8411483 L 4.2681866,2.8333852 L 4.2854185,2.824329 L 4.3026504,2.8139782 L 4.3198821,2.8049221 L 4.3357884,2.7945714 L 4.3516949,2.7829275 L 4.367601,2.7725781 L 4.3835075,2.7609342 L 4.3980883,2.7492902 L 4.4139947,2.7363517 L 4.4285756,2.7234134 L 4.4418307,2.7104762 L 4.4564116,2.6975378 V 2.6975378 L 4.4696669,2.6833062 L 4.4842476,2.6703691 L 4.4975029,2.6561375 L 4.5094327,2.6406115 L 4.5226881,2.6263798 L 4.5346177,2.610855 L 4.5452221,2.595329 L 4.5571519,2.5798042 L 4.5677561,2.5642781 L 4.5783602,2.5474601 L 4.5876389,2.5306408 L 4.5969175,2.5138216 L 4.6061964,2.4970022 L 4.6141496,2.480183 L 4.6221026,2.4620692 L 4.6300558,2.4439567 L 4.6366836,2.4258443 L 4.6433111,2.4077305 L 4.6486132,2.389618 L 4.6539153,2.3715056 L 4.6578918,2.3520986 L 4.663194,2.3339848 L 4.665845,2.3145792 L 4.6698216,2.2964654 L 4.6724727,2.2770584 L 4.6737982,2.2576514 L 4.6751239,2.2382458 L 4.6764493,2.220132 L 4.6777749,2.2007251 V 2.1813194 V 2.1813194 V 2.1619124 L 4.6764493,2.1425055 L 4.6751239,2.1243931 L 4.6737982,2.1049861 L 4.6724727,2.0855791 L 4.6698216,2.0674666 L 4.665845,2.0480597 L 4.663194,2.0299458 L 4.6578918,2.0105389 L 4.6539153,1.9924265 L 4.6486132,1.974314 L 4.6433111,1.954907 L 4.6366836,1.9367932 L 4.6300558,1.919974 L 4.6221026,1.9018615 L 4.6141496,1.883749 L 4.6061964,1.8669297 L 4.5969175,1.8501104 L 4.5876389,1.8332912 L 4.5783602,1.8164719 L 4.5677561,1.8009471 L 4.5571519,1.7841279 L 4.5465475,1.7686017 L 4.5346177,1.7530769 L 4.5226881,1.7388454 L 4.5094327,1.7233193 L 4.4975029,1.7090876 L 4.4842476,1.6948561 L 4.4696669,1.6806245 L 4.4564116,1.6676874 V 1.6676874 L 4.4418307,1.6547489 L 4.4285756,1.6418105 L 4.4139947,1.6288734 L 4.3980883,1.6172294 L 4.3835075,1.6042911 L 4.367601,1.5939417 L 4.3516949,1.5822978 L 4.3357884,1.5719471 L 4.3198821,1.5615963 L 4.3026504,1.5512469 L 4.2854185,1.5421894 L 4.2681866,1.5331331 L 4.2509546,1.5240768 L 4.2337229,1.5163138 L 4.2151654,1.508552 L 4.1979335,1.5020822 L 4.1793762,1.4956137 L 4.1608187,1.4891451 L 4.1422613,1.4839697 L 4.1237039,1.4787944 L 4.1038212,1.4736191 L 4.0852635,1.4697381 L 4.0653807,1.4671505 L 4.0468233,1.4632696 L 4.0269404,1.460682 L 4.008383,1.4593874 L 3.9885,1.4580943 L 3.9686172,1.4567997 L 3.9500599,1.4555066 H 3.9301768 V 1.4555066 V 1.4555066 H 3.9102939 L 3.8917365,1.4567997 L 3.8718535,1.4580943 L 3.8519708,1.4593874 L 3.8320877,1.460682 L 3.8135304,1.4632696 L 3.7936476,1.4658573 L 3.7750901,1.4697381 L 3.7552071,1.4736191 L 3.7366497,1.4787944 L 3.7180922,1.4839697 L 3.6995351,1.4891451 L 3.6809774,1.4943205 L 3.6624201,1.5007891 L 3.6438627,1.508552 L 3.6253053,1.5163138 L 3.6080735,1.5240768 L 3.5908416,1.53184 L 3.5736096,1.5408961 L 3.5563779,1.5512469 L 3.539146,1.5603031 L 3.5232397,1.5706539 L 3.5073334,1.5810033 L 3.4914269,1.5926472 L 3.4755206,1.6042911 L 3.46094,1.615935 L 3.4450335,1.6288734 L 3.4304527,1.6418105 L 3.4171973,1.6547489 L 3.4026167,1.6676874 V 1.6676874 L 3.3893612,1.6819189 L 3.3761061,1.6948561 L 3.3628508,1.7090876 L 3.3495954,1.7233193 L 3.3376657,1.7388454 L 3.325736,1.7543702 L 3.3151318,1.7698962 L 3.3032019,1.785421 L 3.2939233,1.8009471 L 3.283319,1.8177664 L 3.2740403,1.8345843 L 3.2647617,1.8514036 L 3.2554831,1.8682229 L 3.2475298,1.8850422 L 3.2395767,1.903156 L 3.2329489,1.919974 L 3.2263215,1.9380877 L 3.2196939,1.9562002 L 3.2143915,1.974314 L 3.2090895,1.9924265 L 3.2051128,2.0118335 L 3.2011362,2.0299458 L 3.1971598,2.0493529 L 3.1945086,2.0674666 L 3.1918574,2.0868723 L 3.1905322,2.1049861 L 3.1878811,2.1243931 V 2.1437986 L 3.1865556,2.1619124 V 2.1813194 V 2.1813194 V 2.2007251 L 3.1878811,2.220132 L 3.1892065,2.2382458 L 3.1905322,2.2576514 L 3.1918574,2.2770584 L 3.1945086,2.2951722 L 3.1971598,2.3145792 L 3.2011362,2.3326917 L 3.2051128,2.3520986 L 3.2104151,2.3702111 L 3.2143915,2.3883235 L 3.2210193,2.4077305 L 3.2263215,2.4258443 L 3.2329489,2.4439567 L 3.2409022,2.460776 L 3.2475298,2.4788885 L 3.2554831,2.4957078 L 3.2647617,2.5138216 L 3.2740403,2.5306408 L 3.283319,2.5461656 L 3.2939233,2.5629849 L 3.3045276,2.5798042 L 3.3151318,2.595329 L 3.325736,2.610855 L 3.3376657,2.6263798 L 3.3509209,2.6406115 L 3.3628508,2.654843 L 3.3761061,2.6703691 L 3.3893612,2.6833062 L 3.4026167,2.6975378 V 2.6975378 L 3.4171973,2.7104762 L 3.4304527,2.7234134 L 3.4450335,2.7363517 L 3.46094,2.7492902 L 3.4755206,2.7609342 L 3.4914269,2.7725781 L 3.5073334,2.7842219 L 3.5232397,2.7945714 L 3.539146,2.8049221 L 3.5563779,2.8152729 L 3.5736096,2.824329 L 3.5908416,2.8333852 L 3.6080735,2.8424416 L 3.6253053,2.8502045 L 3.6438627,2.8579676 L 3.6624201,2.8644362 L 3.679652,2.8709047 L 3.6982095,2.8773745 L 3.7180922,2.8825486 L 3.7366497,2.887724 L 3.7552071,2.8928993 L 3.7750901,2.8967803 L 3.7936476,2.8993679 L 3.8135304,2.9032501 L 3.8320877,2.9058378 L 3.8519708,2.907131 L 3.8718535,2.9084255 L 3.890411,2.9097186 L 3.9102939,2.9110118 Z M 5.1721968,1.4555066 V 2.9110118 Z M 8.2301907,2.9110118 L 7.4825921,2.1813194 Z M 9.8155219,2.0959298 H 8.6981013 Z M 11.620891,2.9110118 V 2.1813194 Z M 12.037108,1.4555066 V 2.9110118 Z M 15.095101,2.1813194 V 2.1813194 V 2.1813194 V 2.2007251 L 15.093775,2.220132 L 15.092449,2.2382458 L 15.091124,2.2576514 L 15.089799,2.2770584 L 15.087147,2.2951722 L 15.08317,2.3145792 L 15.080521,2.3339848 L 15.076544,2.3520986 L 15.071241,2.3702111 L 15.065938,2.389618 L 15.060637,2.4077305 L 15.054008,2.4258443 L 15.047382,2.4439567 L 15.040755,2.4620692 L 15.032802,2.4788885 L 15.024848,2.4970022 L 15.015568,2.5138216 L 15.006289,2.5306408 L 14.997012,2.5474601 L 14.986408,2.5629849 L 14.975804,2.5798042 L 14.965199,2.595329 L 14.95327,2.610855 L 14.941338,2.6263798 L 14.929411,2.6406115 L 14.916156,2.6561375 L 14.902899,2.6703691 L 14.889645,2.6833062 L 14.876389,2.6975378 V 2.6975378 V 2.6975378 L 14.861809,2.7104762 L 14.847228,2.7234134 L 14.832646,2.7363517 L 14.818065,2.7479957 L 14.802159,2.7596395 L 14.786254,2.7712835 L 14.770347,2.7829275 L 14.75444,2.7932782 L 14.738534,2.8036289 L 14.721301,2.8139782 L 14.704069,2.8230345 L 14.686837,2.8320921 L 14.669606,2.8411483 L 14.652375,2.8489114 L 14.633816,2.8566731 L 14.615259,2.8631429 L 14.598028,2.8696116 L 14.579472,2.8760801 L 14.559588,2.8825486 L 14.54103,2.887724 L 14.522474,2.8916062 L 14.502591,2.895487 L 14.484033,2.8993679 L 14.46415,2.9019556 L 14.445593,2.9058378 L 14.42571,2.907131 L 14.405826,2.9084255 L 14.387267,2.9097186 L 14.367386,2.9110118 H 14.347503 V 2.9110118 H 14.327619 L 14.307737,2.9097186 L 14.28918,2.9084255 L 14.269298,2.907131 L 14.249415,2.9058378 L 14.230857,2.9019556 L 14.210974,2.8993679 L 14.192418,2.895487 L 14.172534,2.8916062 L 14.153976,2.887724 L 14.13542,2.8825486 L 14.115537,2.8760801 L 14.096977,2.8696116 L 14.079747,2.8631429 L 14.061188,2.8566731 L 14.042633,2.8489114 L 14.025398,2.8411483 L 14.008167,2.8320921 L 13.990934,2.8230345 L 13.973706,2.8139782 L 13.956472,2.8036289 L 13.940566,2.7932782 L 13.924659,2.7829275 L 13.908754,2.7712835 L 13.892848,2.7596395 L 13.87694,2.7479957 L 13.86236,2.7363517 L 13.847778,2.7234134 L 13.833199,2.7104762 L 13.818618,2.6975378 V 2.6975378 V 2.6975378 L 13.805361,2.6833062 L 13.792105,2.6703691 L 13.778851,2.6561375 L 13.765595,2.6406115 L 13.753666,2.6263798 L 13.741736,2.610855 L 13.731133,2.595329 L 13.719202,2.5798042 L 13.709924,2.5629849 L 13.699317,2.5474601 L 13.690041,2.5306408 L 13.680762,2.5138216 L 13.671483,2.4957078 L 13.66353,2.4788885 L 13.656905,2.460776 L 13.648949,2.4439567 L 13.643649,2.4258443 L 13.63702,2.4077305 L 13.631718,2.3883235 L 13.626416,2.3702111 L 13.622439,2.3520986 L 13.618463,2.3326917 L 13.614486,2.3145792 L 13.611835,2.2951722 L 13.609185,2.2770584 L 13.60786,2.2576514 L 13.605207,2.2382458 V 2.220132 L 13.603882,2.2007251 V 2.1813194 V 2.1813194 V 2.1813194 V 2.1619124 L 13.605207,2.1437986 V 2.1243931 L 13.60786,2.1049861 L 13.609185,2.0868723 L 13.611835,2.0674666 L 13.614486,2.0493529 L 13.618463,2.0299458 L 13.622439,2.0118335 L 13.626416,1.9924265 L 13.631718,1.974314 L 13.63702,1.9562002 L 13.643649,1.9380877 L 13.650275,1.919974 L 13.656905,1.903156 L 13.664855,1.8850422 L 13.672809,1.8682229 L 13.682088,1.8514036 L 13.691367,1.8345843 L 13.700644,1.8177664 L 13.711249,1.8009471 L 13.720527,1.785421 L 13.732458,1.7698962 L 13.743062,1.7543702 L 13.754991,1.7388454 L 13.766922,1.7233193 L 13.780176,1.7090876 L 13.793431,1.6948561 L 13.806687,1.6819189 L 13.819943,1.6676874 V 1.6676874 L 13.834524,1.6547489 L 13.847778,1.6418105 L 13.86236,1.6288734 L 13.878265,1.615935 L 13.892848,1.6042911 L 13.908754,1.5926472 L 13.924659,1.5810033 L 13.940566,1.5706539 L 13.956472,1.5603031 L 13.973706,1.5512469 L 13.990934,1.5408961 L 14.008167,1.53184 L 14.025398,1.5240768 L 14.042633,1.5163138 L 14.061188,1.508552 L 14.079747,1.5007891 L 14.098304,1.4943205 L 14.116862,1.4891451 L 14.13542,1.4839697 L 14.153976,1.4787944 L 14.172534,1.4736191 L 14.192418,1.4697381 L 14.210974,1.4658573 L 14.230857,1.4632696 L 14.249415,1.460682 L 14.269298,1.4593874 L 14.28918,1.4580943 L 14.309063,1.4567997 L 14.327619,1.4555066 H 14.347503 V 1.4555066 V 1.4555066 H 14.367386 L 14.387267,1.4567997 L 14.405826,1.4580943 L 14.42571,1.4593874 L 14.445593,1.460682 L 14.46415,1.4645627 L 14.484033,1.4671505 L 14.502591,1.4710313 L 14.522474,1.4749135 L 14.54103,1.4787944 L 14.559588,1.4839697 L 14.579472,1.4904383 L 14.598028,1.4969082 L 14.615259,1.5033767 L 14.633816,1.5098453 L 14.652375,1.5176084 L 14.669606,1.52537 L 14.686837,1.5344276 L 14.704069,1.5434838 L 14.721301,1.5525401 L 14.738534,1.5628907 L 14.75444,1.5732402 L 14.770347,1.5835909 L 14.786254,1.5952348 L 14.802159,1.6068788 L 14.818065,1.6185227 L 14.832646,1.6301666 L 14.847228,1.643105 L 14.861809,1.6560421 L 14.876389,1.6689806 V 1.6689806 L 13.818618,2.6975378 L 14.876389,1.6689806 V 1.6689806 L 14.861809,1.6560421 L 14.847228,1.643105 L 14.832646,1.6301666 L 14.818065,1.6185227 L 14.802159,1.6068788 L 14.786254,1.5952348 L 14.770347,1.5835909 L 14.75444,1.5732402 L 14.738534,1.5628907 L 14.721301,1.5525401 L 14.704069,1.5434838 L 14.686837,1.5344276 L 14.669606,1.52537 L 14.652375,1.5176084 L 14.633816,1.5098453 L 14.615259,1.5033767 L 14.598028,1.4969082 L 14.579472,1.4904383 L 14.559588,1.4839697 L 14.54103,1.4787944 L 14.522474,1.4749135 L 14.502591,1.4710313 L 14.484033,1.4671505 L 14.46415,1.4645627 L 14.445593,1.460682 L 14.42571,1.4593874 L 14.405826,1.4580943 L 14.387267,1.4567997 L 14.367386,1.4555066 H 14.347503 V 1.4555066 V 1.4555066 H 14.327619 L 14.309063,1.4567997 L 14.28918,1.4580943 L 14.269298,1.4593874 L 14.249415,1.460682 L 14.230857,1.4632696 L 14.210974,1.4658573 L 14.192418,1.4697381 L 14.172534,1.4736191 L 14.153976,1.4787944 L 14.13542,1.4839697 L 14.116862,1.4891451 L 14.098304,1.4943205 L 14.079747,1.5007891 L 14.061188,1.508552 L 14.042633,1.5163138 L 14.025398,1.5240768 L 14.008167,1.53184 L 13.990934,1.5408961 L 13.973706,1.5512469 L 13.956472,1.5603031 L 13.940566,1.5706539 L 13.924659,1.5810033 L 13.908754,1.5926472 L 13.892848,1.6042911 L 13.878265,1.615935 L 13.86236,1.6288734 L 13.847778,1.6418105 L 13.834524,1.6547489 L 13.819943,1.6676874 V 1.6676874 L 13.806687,1.6819189 L 13.793431,1.6948561 L 13.780176,1.7090876 L 13.766922,1.7233193 L 13.754991,1.7388454 L 13.743062,1.7543702 L 13.732458,1.7698962 L 13.720527,1.785421 L 13.711249,1.8009471 L 13.700644,1.8177664 L 13.691367,1.8345843 L 13.682088,1.8514036 L 13.672809,1.8682229 L 13.664855,1.8850422 L 13.656905,1.903156 L 13.650275,1.919974 L 13.643649,1.9380877 L 13.63702,1.9562002 L 13.631718,1.974314 L 13.626416,1.9924265 L 13.622439,2.0118335 L 13.618463,2.0299458 L 13.614486,2.0493529 L 13.611835,2.0674666 L 13.609185,2.0868723 L 13.60786,2.1049861 L 13.605207,2.1243931 V 2.1437986 L 13.603882,2.1619124 V 2.1813194 V 2.1813194 V 2.1813194 V 2.2007251 L 13.605207,2.220132 V 2.2382458 L 13.60786,2.2576514 L 13.609185,2.2770584 L 13.611835,2.2951722 L 13.614486,2.3145792 L 13.618463,2.3326917 L 13.622439,2.3520986 L 13.626416,2.3702111 L 13.631718,2.3883235 L 13.63702,2.4077305 L 13.643649,2.4258443 L 13.648949,2.4439567 L 13.656905,2.460776 L 13.66353,2.4788885 L 13.671483,2.4957078 L 13.680762,2.5138216 L 13.690041,2.5306408 L 13.699317,2.5474601 L 13.709924,2.5629849 L 13.719202,2.5798042 L 13.731133,2.595329 L 13.741736,2.610855 L 13.753666,2.6263798 L 13.765595,2.6406115 L 13.778851,2.6561375 L 13.792105,2.6703691 L 13.805361,2.6833062 L 13.818618,2.6975378 V 2.6975378 V 2.6975378 L 13.833199,2.7104762 L 13.847778,2.7234134 L 13.86236,2.7363517 L 13.87694,2.7479957 L 13.892848,2.7596395 L 13.908754,2.7712835 L 13.924659,2.7829275 L 13.940566,2.7932782 L 13.956472,2.8036289 L 13.973706,2.8139782 L 13.990934,2.8230345 L 14.008167,2.8320921 L 14.025398,2.8411483 L 14.042633,2.8489114 L 14.061188,2.8566731 L 14.079747,2.8631429 L 14.096977,2.8696116 L 14.115537,2.8760801 L 14.13542,2.8825486 L 14.153976,2.887724 L 14.172534,2.8916062 L 14.192418,2.895487 L 14.210974,2.8993679 L 14.230857,2.9019556 L 14.249415,2.9058378 L 14.269298,2.907131 L 14.28918,2.9084255 L 14.307737,2.9097186 L 14.327619,2.9110118 H 14.347503 V 2.9110118 H 14.367386 L 14.387267,2.9097186 L 14.405826,2.9084255 L 14.42571,2.907131 L 14.445593,2.9058378 L 14.46415,2.9019556 L 14.484033,2.8993679 L 14.502591,2.895487 L 14.522474,2.8916062 L 14.54103,2.887724 L 14.559588,2.8825486 L 14.579472,2.8760801 L 14.598028,2.8696116 L 14.615259,2.8631429 L 14.633816,2.8566731 L 14.652375,2.8489114 L 14.669606,2.8411483 L 14.686837,2.8320921 L 14.704069,2.8230345 L 14.721301,2.8139782 L 14.738534,2.8036289 L 14.75444,2.7932782 L 14.770347,2.7829275 L 14.786254,2.7712835 L 14.802159,2.7596395 L 14.818065,2.7479957 L 14.832646,2.7363517 L 14.847228,2.7234134 L 14.861809,2.7104762 L 14.876389,2.6975378 V 2.6975378 V 2.6975378 L 14.889645,2.6833062 L 14.902899,2.6703691 L 14.916156,2.6561375 L 14.929411,2.6406115 L 14.941338,2.6263798 L 14.95327,2.610855 L 14.965199,2.595329 L 14.975804,2.5798042 L 14.986408,2.5629849 L 14.997012,2.5474601 L 15.006289,2.5306408 L 15.015568,2.5138216 L 15.024848,2.4970022 L 15.032802,2.4788885 L 15.040755,2.4620692 L 15.047382,2.4439567 L 15.054008,2.4258443 L 15.060637,2.4077305 L 15.065938,2.389618 L 15.071241,2.3702111 L 15.076544,2.3520986 L 15.080521,2.3339848 L 15.08317,2.3145792 L 15.087147,2.2951722 L 15.089799,2.2770584 L 15.091124,2.2576514 L 15.092449,2.2382458 L 15.093775,2.220132 L 15.095101,2.2007251 Z M 17.132439,2.9110118 V 2.1813194 Z"
                 id="path2"
                 style="stroke:#999999;stroke-width:0.130956" /></svg>
